<?xml version="1.0" standalone="no"?>
<!DOCTYPE svg PUBLIC "-//W3C//DTD SVG 1.1//EN" "http://www.w3.org/Graphics/SVG/1.1/DTD/svg11.dtd" >
<svg xmlns="http://www.w3.org/2000/svg">
<metadata></metadata>
<defs>
<font id="QuaverSansRegular" horiz-adv-x="204" >
<font-face units-per-em="2048" ascent="1434" descent="-614" />
<missing-glyph horiz-adv-x="409" />
<glyph horiz-adv-x="0" />
<glyph horiz-adv-x="2048" />
<glyph unicode=" "  horiz-adv-x="409" />
<glyph unicode="&#x09;" horiz-adv-x="409" />
<glyph unicode="&#xa0;" horiz-adv-x="409" />
<glyph unicode="!" d="M41 61q0 26 17.5 44t43.5 18t44 -18t18 -44t-18 -43.5t-44 -17.5t-43.5 17.5t-17.5 43.5zM51 1270h103l-21 -1024h-61z" />
<glyph unicode="&#x22;" horiz-adv-x="397" d="M41 1372q0 26 17.5 44t43.5 18t44 -18t18 -44q0 -27 -12 -65.5t-24 -62.5l-11 -25h-31q-45 92 -45 153zM233 1372q0 26 18 44t44 18t43.5 -18t17.5 -44q0 -27 -12 -65.5t-24 -62.5l-11 -25h-30q-46 92 -46 153z" />
<glyph unicode="#" horiz-adv-x="1116" d="M41 328l29 123h204l76 327h-205l29 123h205l78 328h82l-78 -328h327l78 328h82l-78 -328h205l-28 -123h-205l-76 -327h205l-29 -123h-205l-75 -328h-82l75 328h-327l-76 -328h-82l76 328h-205zM356 451h328l76 327h-328z" />
<glyph unicode="$" horiz-adv-x="1026" d="M43 387h78q0 -123 78 -205q87 -90 254 -102v584q-63 20 -103 34t-96.5 42t-89.5 56.5t-57.5 72.5t-24.5 96q0 72 29.5 129.5t81 94t117.5 57t143 24.5v84h82v-82q209 -13 307 -127q86 -95 86 -240h-76q0 18 -2 36.5t-10 47t-20.5 54t-37 53t-56.5 47.5t-81.5 34.5 t-109.5 16.5v-477q48 -14 78.5 -24t76 -26.5t77.5 -32.5t67 -36.5t61.5 -45.5t44.5 -54q45 -62 45 -150q0 -74 -22.5 -132t-62 -97t-97 -65t-123.5 -38t-145 -14v-82h-82v84q-203 12 -312 127q-98 105 -98 256zM158 965q0 -33 16 -62t41 -50.5t65.5 -42t79.5 -35.5t93 -32 v451q-75 -5 -131.5 -24.5t-86.5 -44t-48.5 -56.5t-23.5 -56t-5 -48zM535 80q217 3 309 92q65 62 65 176q0 28 -8 53.5t-20 46t-33.5 40.5t-40 34t-49 29.5t-51.5 25t-56 22t-53.5 18.5t-53.5 17q-2 1 -3 1t-3 1t-3 1v-557z" />
<glyph unicode="%" horiz-adv-x="1105" d="M2 1104q0 145 72.5 236.5t189.5 91.5t190.5 -91.5t73.5 -238.5t-73.5 -237.5t-190.5 -90.5t-189.5 90.5t-72.5 239.5zM41 41l956 1393l68 -41l-963 -1393zM45 1102q0 -131 59 -208t160 -77q100 0 159.5 78t59.5 207q0 131 -60 207.5t-159 76.5q-99 2 -159 -75.5 t-60 -208.5zM582 332q0 145 72.5 236t189.5 91t190.5 -91t73.5 -238t-73.5 -237.5t-190.5 -90.5t-189.5 90.5t-72.5 239.5zM625 330q0 -131 59 -208t160 -77q100 0 159.5 78t59.5 207q0 131 -60 207.5t-159 76.5q-99 2 -159 -75.5t-60 -208.5z" />
<glyph unicode="&#x26;" horiz-adv-x="952" d="M51 430q0 176 107 277q59 56 149 88q-112 77 -112 231q0 115 79 180.5t187 65.5t187 -65.5t79 -180.5h-82q0 45 -19.5 79.5t-49.5 51.5t-59 25t-56 8t-56 -8t-59.5 -25t-50 -51.5t-19.5 -79.5q0 -126 99 -178q53 -27 104 -27h2v-82h-4q-16 0 -37.5 -2t-63 -9.5 t-85.5 -28.5t-76 -52q-82 -76 -82 -217q0 -151 98 -248.5t250 -97.5q158 0 253 78t95 209q0 83 -35.5 133.5t-107.5 50.5q-56 0 -89.5 -33.5t-33.5 -89.5h-82q0 89 58 147t147 58q103 0 164 -72.5t61 -193.5q0 -166 -118.5 -267.5t-311.5 -101.5q-184 0 -307 122.5 t-123 305.5z" />
<glyph unicode="'" d="M41 1372q0 26 17.5 44t43.5 18t44 -18t18 -44q0 -27 -12 -65.5t-24 -62.5l-11 -25h-31q-45 92 -45 153z" />
<glyph unicode="(" horiz-adv-x="534" d="M61 614q0 109 15 207t41 171t59 136.5t70 107.5t73.5 79.5t69.5 57t59 36t41 19.5l15 6v-66q-82 -36 -146 -100t-103.5 -139.5t-65.5 -166.5t-36 -175.5t-10 -172.5q0 -540 361 -743v-59q-9 3 -25 10t-62 35.5t-88 65t-93 103t-88 145t-62 194.5t-25 249z" />
<glyph unicode=")" horiz-adv-x="534" d="M31 -129q360 203 360 743q0 112 -17.5 218.5t-56 213.5t-112 192t-174.5 130v66q9 -3 25 -9.5t62 -34.5t87.5 -64.5t92.5 -103.5t88 -147.5t62 -201t25 -259.5q0 -104 -15 -198.5t-40.5 -165.5t-59 -133t-70 -105.5t-73 -79t-70 -57.5t-59 -36.5t-40.5 -20.5l-15 -6v59z " />
<glyph unicode="*" horiz-adv-x="505" d="M41 1102l168 65l-168 64l51 88l137 -111l-24 174h98l-24 -174l137 111l49 -88l-166 -64l166 -65l-49 -86l-137 110l24 -174h-98l24 174l-137 -110z" />
<glyph unicode="+" horiz-adv-x="614" d="M41 512v82h225v225h82v-225h225v-82h-225v-225h-82v225h-225z" />
<glyph unicode="," horiz-adv-x="184" d="M41 -49q25 32 25 61q-25 8 -25 41q0 25 14 39t37 14t37 -14t14 -39q0 -42 -28.5 -77t-59.5 -50z" />
<glyph unicode="-" horiz-adv-x="798" d="M0 532v82h799v-82h-799z" />
<glyph unicode="." horiz-adv-x="192" d="M41 55q0 21 17.5 38.5t37.5 17.5q22 0 39 -17t17 -39q0 -21 -17 -38t-39 -17q-20 0 -37.5 17.5t-17.5 37.5z" />
<glyph unicode="/" horiz-adv-x="718" d="M41 0l518 1434h119l-518 -1434h-119z" />
<glyph unicode="0" horiz-adv-x="1064" d="M41 618q0 270 136.5 440.5t354.5 170.5q219 0 355.5 -169.5t136.5 -443.5q0 -276 -136.5 -445t-355.5 -169t-355 169.5t-136 446.5zM123 616q0 -245 109.5 -388.5t299.5 -143.5q186 0 298 146.5t112 385.5q0 244 -112 387.5t-298 143.5q-185 2 -297 -142t-112 -389z" />
<glyph unicode="1" horiz-adv-x="409" d="M61 1024v94l205 111h82v-1229h-82v1126z" />
<glyph unicode="2" horiz-adv-x="819" d="M51 0v82q0 62 63.5 150t153.5 177t180.5 177t154 173t63.5 142q0 31 -4 58t-19.5 63.5t-42.5 62t-79 44t-122 18.5q-52 0 -93 -9t-66 -23.5t-43.5 -33t-25.5 -38t-13 -38t-4.5 -33.5t0.5 -24v-6h-82q0 34 7 68t28.5 75t55.5 71.5t95 51.5t141 21q47 0 91.5 -8t92.5 -30.5 t83.5 -58t58.5 -95t23 -136.5q0 -58 -34 -124.5t-88 -128t-119.5 -125t-131.5 -124t-120 -115.5t-88 -108t-34 -94h635v-82h-717z" />
<glyph unicode="3" horiz-adv-x="868" d="M51 293v10h80v-10q1 -20 8 -45t26.5 -55.5t48.5 -55t78 -41t111 -16.5q43 0 88 11t89.5 34.5t79 57t56 83t21.5 107.5q0 123 -129 207q-50 32 -107 48.5t-98 16.5h-10v80h10q32 0 73.5 20t76.5 54q82 76 82 157q0 86 -64.5 139.5t-167.5 53.5q-95 0 -165 -45 q-66 -43 -66 -86v-10h-80v10q0 65 48.5 114.5t118 73t144.5 23.5q121 0 203 -51q111 -70 111 -222q0 -80 -49 -150t-103 -108q81 -34 140 -84q112 -100 112 -241q0 -179 -135 -283q-117 -90 -279 -90q-181 0 -276 102q-76 83 -76 191z" />
<glyph unicode="4" horiz-adv-x="952" d="M51 471v102l533 656h102v-676h225v-82h-225v-471h-82v471h-553zM137 553h467v563z" />
<glyph unicode="5" horiz-adv-x="921" d="M51 287h82q0 -75 94.5 -140t212.5 -65q161 0 254.5 89.5t93.5 238.5q0 143 -96 235t-252 92q-57 0 -118.5 -15.5t-93.5 -30.5l-33 -15h-82v553h614v-82h-532v-369q10 5 29.5 11.5t83.5 18t132 11.5q194 0 312 -118t118 -291q0 -84 -28.5 -158t-81.5 -130.5t-135.5 -89 t-184.5 -32.5q-80 0 -147.5 20t-111 51t-74 70t-43.5 76t-13 70z" />
<glyph unicode="6" horiz-adv-x="925" d="M51 614q0 281 118 448t292 167q80 0 146.5 -20.5t107 -51.5t68.5 -68t39.5 -68.5t11.5 -55.5h-82q0 4 -5.5 20.5t-25 45t-49 53.5t-85 44t-126.5 19t-127.5 -30.5t-90 -79.5t-57.5 -108t-34 -117.5t-15 -107.5t-5 -80l1 -30q1 7 4 19.5t24.5 44.5t55 56t103 44t161.5 20 q168 0 279 -110.5t112 -280.5q3 -159 -112 -273t-281 -114q-231 0 -329.5 150.5t-98.5 463.5zM154 389q0 -129 86 -218t239 -89q134 0 221.5 91t87.5 216t-86.5 216t-220.5 91q-167 0 -247 -85.5t-80 -221.5z" />
<glyph unicode="7" horiz-adv-x="890" d="M51 1147v82h799v-80q-119 -222 -340 -631t-279 -516h-92l617 1145h-705z" />
<glyph unicode="8" horiz-adv-x="921" d="M41 336q0 59 18 110.5t47 87t64 64.5t70 47t64 30t47 17l18 4q-10 2 -26.5 6.5t-58.5 26t-74.5 50.5t-59 83t-27.5 121q-2 110 82 178t246 68q161 0 245 -70t84 -178q1 -66 -25 -119.5t-63 -83t-74.5 -49.5t-63.5 -27l-26 -6q7 -1 20 -4t49.5 -15.5t70 -28t74 -44t70 -62 t49.5 -83t20 -105.5q0 -163 -110 -258.5t-320 -95.5q-88 0 -159.5 18.5t-129 57t-89.5 105t-32 155.5zM123 336q0 -61 24 -108.5t59.5 -74t82.5 -43.5t85.5 -22.5t76.5 -5.5q40 0 83 6.5t91.5 25.5t86 48t62.5 79t25 113q0 66 -36 121t-87 86.5t-102 53.5t-87 30l-36 8 q-7 -2 -18.5 -5t-46 -16t-65.5 -28.5t-68.5 -42.5t-65 -58t-46 -74.5t-18.5 -92.5zM203 979q0 -53 25.5 -96.5t62 -68.5t73 -42.5t62.5 -23.5l25 -7q10 2 27 6.5t60 23t75.5 42.5t59.5 69t27 99q0 48 -21.5 83.5t-58.5 55t-79.5 28.5t-89.5 9q-66 0 -119 -15.5t-91 -57 t-38 -105.5z" />
<glyph unicode="9" horiz-adv-x="925" d="M53 842q-3 159 112 273t281 114q231 0 329.5 -151t98.5 -464q0 -281 -117.5 -447.5t-291.5 -166.5q-80 0 -146.5 20.5t-107 51.5t-68.5 68t-39.5 68.5t-11.5 55.5h82q0 -4 5.5 -20.5t25 -45t49 -53.5t85 -44t126.5 -19t127.5 30.5t90 79.5t57.5 107.5t34 117.5t15 108 t5 79l-1 31q0 -4 -1.5 -10.5t-10.5 -25.5t-22 -36.5t-40 -39t-62 -36.5t-90.5 -25.5t-122.5 -10.5q-168 0 -279 110.5t-112 280.5zM137 840q0 -126 86 -217t221 -91q167 0 247.5 86t80.5 222q0 129 -86.5 218t-239.5 89q-134 0 -221.5 -91t-87.5 -216z" />
<glyph unicode=":" horiz-adv-x="196" d="M41 637q0 21 17 38t38 17q22 0 39 -16.5t17 -38.5q0 -21 -17 -38t-39 -17q-20 0 -37.5 17.5t-17.5 37.5zM45 55q0 21 17.5 38.5t37.5 17.5q22 0 39 -17t17 -39q0 -21 -17 -38t-39 -17q-20 0 -37.5 17.5t-17.5 37.5z" />
<glyph unicode=";" horiz-adv-x="192" d="M41 49q0 25 14 39t37 14t37 -14t14 -39q0 -42 -28.5 -77t-59.5 -50l-14 25q25 32 25 61q-25 8 -25 41zM41 645q0 21 17 38t38 17q22 0 39 -16.5t17 -38.5q0 -21 -17 -38t-39 -17q-20 0 -37.5 17.5t-17.5 37.5z" />
<glyph unicode="&#x3c;" horiz-adv-x="757" d="M41 471v82l676 471v-82l-615 -430l615 -430v-82z" />
<glyph unicode="=" horiz-adv-x="724" d="M41 313v82h643v-82h-643zM41 723v82h643v-82h-643z" />
<glyph unicode="&#x3e;" horiz-adv-x="757" d="M41 0v82l614 430l-614 430v82l676 -471v-82z" />
<glyph unicode="?" horiz-adv-x="788" d="M41 1042q0 38 16.5 76t50.5 73t96.5 57t143.5 22q26 0 54 -3t67.5 -13t75 -26t71.5 -44.5t62 -66t42.5 -93t16.5 -123.5q0 -88 -19.5 -159t-46 -112.5t-68.5 -76.5t-70.5 -49t-71 -31t-51.5 -22v-205h-103v286q14 5 58.5 20t73 26t69.5 38.5t65.5 61.5t43 92t18.5 131 q0 71 -20.5 125.5t-51 84t-72 48t-75 24t-68.5 5.5q-40 0 -91.5 -17t-93.5 -52t-42 -77h-80zM293 61q0 26 17.5 44t43.5 18t44 -18t18 -44t-18 -43.5t-44 -17.5t-43.5 17.5t-17.5 43.5z" />
<glyph unicode="@" horiz-adv-x="1353" d="M53.5 361q-3.5 141 55.5 280q88 193 280 292.5t402 61.5q216 -38 361 -210t148 -392q4 -248 -131 -315q-97 -50 -187 -0.5t-112 153.5q-47 -91 -135 -138.5t-182 -16.5q-84 27 -132 105t-50 171t40.5 178.5t118.5 131.5q91 55 189 28.5t151 -117.5q2 20 7.5 57.5 t7.5 55.5l82 -16l-13 -43q-15 -63 -23 -128.5t-8 -142t23.5 -135t71.5 -80.5q55 -23 94 -6t63.5 63.5t35.5 95.5t10 91q-1 88 -30 170.5t-79.5 147t-119 115.5t-147.5 76t-165.5 28.5t-173.5 -27.5q-124 -41 -213.5 -136.5t-127.5 -211t-21 -245.5t94 -236q95 -130 245 -187 t307 -26t271 145l59 -59q-161 -161 -392.5 -180t-416.5 114q-118 85 -186 216t-71.5 272zM452.5 373q-2.5 -49 8.5 -95t40.5 -83.5t73.5 -55.5q72 -29 143.5 13t108.5 108q16 31 25 97.5t4 107.5q-5 33 -32 76t-62 65q-61 37 -119.5 22t-104 -59.5t-67.5 -103.5 q-16 -43 -18.5 -92zM1300 393v2v-2zM1300 395v2v-2zM1300 397v2v-2zM1300 399v2v-2zM1300 401v2v-2zM1300 403v3v-3zM1300 406v2v-2zM1300 408v2v-2zM1300 410v2v-2zM1300 412v2v-2z" />
<glyph unicode="A" horiz-adv-x="1247" d="M41 0l522 1270h82l561 -1270h-86l-194 438h-619l-182 -438h-84zM334 502h563l-293 665z" />
<glyph unicode="B" horiz-adv-x="890" d="M61 0v1270h310q98 0 174.5 -26t121.5 -70t68 -97.5t23 -113.5t-20.5 -109.5t-49 -78t-57.5 -48.5t-49 -27l-21 -8q6 -1 16 -3t39 -11.5t55.5 -23t58.5 -39.5t55 -58.5t39 -82.5t16 -109q0 -154 -113 -259.5t-319 -105.5h-347zM143 82h267q91 0 160 25t108 67t57.5 91 t18.5 104q0 53 -17 96t-43 70t-64 47t-71 30t-74 15.5t-64 6.5t-48 1h-230v-553zM143 713h230q23 0 47.5 2.5t62 10t69.5 25t62 43t47 68t17 96.5q0 44 -16.5 83t-50.5 73t-95 54t-141 20h-232v-475z" />
<glyph unicode="C" horiz-adv-x="1161" d="M51 635q0 181 71.5 325.5t204 227t302.5 82.5q71 0 135.5 -16t111 -42t87 -58t66.5 -63.5t45 -60t27 -45.5t9 -22l-74 -23q-30 69 -102 137q-123 111 -305 111q-221 0 -358.5 -153.5t-137.5 -399.5t137.5 -399.5t358.5 -153.5q185 0 305 111q72 68 102 137l74 -23 q-1 -5 -9 -22t-27 -45.5t-45 -60t-66.5 -63.5t-87 -58t-111 -42t-135.5 -16q-170 0 -302.5 82t-204 226.5t-71.5 326.5z" />
<glyph unicode="D" horiz-adv-x="1095" d="M61 0v1270h349q185 0 327.5 -71.5t224.5 -212t82 -331.5q0 -290 -178 -472.5t-456 -182.5h-349zM143 82h267q240 0 396.5 157.5t156.5 415.5q0 249 -152 391t-401 142h-267v-1106z" />
<glyph unicode="E" horiz-adv-x="892" d="M61 0v1270h732v-68h-648v-500h609v-67h-609v-567h686v-68h-770z" />
<glyph unicode="F" horiz-adv-x="843" d="M61 0v1270h732v-68h-648v-500h609v-67h-609v-635h-84z" />
<glyph unicode="G" horiz-adv-x="1218" d="M51 635q0 181 75 325.5t214.5 227t318.5 82.5q75 0 143 -16t117.5 -42t92 -58t70 -63.5t47.5 -60t28.5 -45.5t9.5 -22l-77 -23q-5 11 -15 28.5t-36 49.5t-58 59q-129 111 -322 111q-233 0 -377.5 -153.5t-144.5 -399.5t144.5 -399.5t377.5 -153.5q197 0 322 111 q32 27 58 59t36 49.5t15 28.5v104h-220v66h297v-193q-1 -5 -9.5 -22t-28.5 -45.5t-47.5 -60t-70 -63.5t-92 -58t-117.5 -42t-143 -16q-179 0 -318.5 82t-214.5 226.5t-75 326.5z" />
<glyph unicode="H" horiz-adv-x="983" d="M61 0v1270h82v-563h697v563h82v-1270h-82v635h-697v-635h-82z" />
<glyph unicode="I" d="M61 0v1270h82v-1270h-82z" />
<glyph unicode="J" horiz-adv-x="972" d="M51 328h82q0 -72 49.5 -129.5t124 -87t154.5 -29.5q182 0 275 79t93 249v860h82v-860q0 -111 -35 -192.5t-98.5 -128t-142 -68t-174.5 -21.5q-89 0 -167 28t-130.5 74.5t-82.5 105t-30 120.5z" />
<glyph unicode="K" horiz-adv-x="1103" d="M61 0v1270h82v-611l738 611h123l-582 -484l635 -786h-107l-592 733l-215 -178v-555h-82z" />
<glyph unicode="L" horiz-adv-x="911" d="M61 0v1270h82v-1188h738v-82h-820z" />
<glyph unicode="M" horiz-adv-x="1290" d="M61 0v1270h82l519 -1153l485 1153h82v-1270h-80v1085l-451 -1083h-69l-486 1083v-1085h-82z" />
<glyph unicode="N" horiz-adv-x="1085" d="M61 0v1270h86l799 -1147v1147h78v-1270h-86l-799 1147v-1147h-78z" />
<glyph unicode="O" horiz-adv-x="1228" d="M41 635q0 152 46.5 274.5t126 200.5t182 119t218.5 41q94 0 177 -22t156.5 -71.5t126.5 -122t83.5 -180t30.5 -239.5t-30.5 -239.5t-83.5 -180t-126.5 -122t-156.5 -71.5t-177 -22q-116 0 -218.5 41t-182 119t-126 200.5t-46.5 274.5zM123 635q0 -139 41.5 -248 t111.5 -174t156 -98t182 -33q38 0 75 4t88 18t94 37t88 65t76 98.5t51 141.5t20 189t-20 189t-51 141.5t-76 98.5t-88 65t-94 37t-88 18t-75 4q-96 0 -182 -33t-156 -98t-111.5 -174t-41.5 -248z" />
<glyph unicode="P" horiz-adv-x="788" d="M61 0v1270h310q83 0 148.5 -22.5t105.5 -57t66 -80t36 -87t10 -81.5t-10.5 -81.5t-37 -87t-66.5 -80t-106 -57t-148 -22.5h-226v-614h-82zM143 696h226q153 0 229 88q57 68 57 158t-55 158q-76 88 -229 88h-228v-492z" />
<glyph unicode="Q" horiz-adv-x="1286" d="M51 633q0 152 50 275t134 201t190.5 119.5t223.5 41.5q95 0 181 -22t163.5 -71.5t133.5 -122t89 -180.5t33 -241q0 -288 -151 -455q-121 -139 -256 -241q59 -19 119.5 -52t99.5 -59t100.5 -46.5t132.5 -21.5h6q54 0 103 18q52 18 85 46t52 49.5t25 34.5l49 -19l-5.5 -11 t-17.5 -27.5t-30.5 -39t-44 -41t-58 -39t-73.5 -27.5t-89 -11q-82 0 -154 23t-117.5 52.5t-115 65.5t-137.5 55q-159 -102 -297 -102q-56 0 -88.5 23.5t-30.5 54.5q1 55 53.5 83.5t143.5 28.5q112 0 186 -14q47 31 49 33h-2q29 21 39 29q-89 -25 -176 -25q-93 0 -180 25.5 t-163 78.5t-133 127.5t-89.5 178.5t-32.5 225zM129 633q0 -111 30 -204.5t81 -157.5t118 -109t140.5 -65.5t150.5 -20.5t151 20.5t141.5 65.5t118.5 109t81 157.5t30 204.5q0 107 -23 194t-58.5 143.5t-85.5 99.5t-97.5 65.5t-101 36t-88.5 17t-68 3.5q-77 0 -150.5 -20.5 t-140.5 -65.5t-118 -109.5t-81 -158t-30 -205.5zM442 -116q-6 -8 -6 -14q0 -11 15 -20q14 -8 35 -8q9 0 20 2q74 14 160 68q-56 6 -101 6q-98 0 -123 -34z" />
<glyph unicode="R" horiz-adv-x="811" d="M61 0v1270h310q83 0 148.5 -22.5t105.5 -57t66 -80t36 -87t10 -81.5q0 -85 -48.5 -171t-151.5 -128q87 -44 139 -141q41 -84 41 -195q0 -40 5 -78t13.5 -68t18.5 -56t20 -45t18.5 -32.5t13.5 -20.5l5 -7h-98q-3 5 -8.5 13.5t-19 38.5t-23.5 63t-18.5 85t-8.5 107 q0 83 -28 144t-64.5 91t-85.5 47.5t-76.5 21t-52.5 3.5h-185v-614h-82zM143 696h226q153 0 229 88q57 68 57 158t-55 158q-76 88 -229 88h-228v-492z" />
<glyph unicode="S" horiz-adv-x="1026" d="M43 385h78q-3 -3 -0.5 -33t22 -81.5t56.5 -90.5q99 -102 305 -102q245 0 340 92q65 62 65 176q0 111 -121 186q-85 50 -290 115q-167 53 -226 81q-184 86 -190 225v10q0 125 88 204q112 103 334 103q230 0 338 -127q86 -95 86 -240h-78q0 19 -2 38.5t-10.5 49t-22 55.5 t-40 54t-62 47.5t-89.5 32t-120 12.5q-88 0 -154.5 -17.5t-102 -42.5t-57 -59t-27 -59t-5.5 -51q0 -31 12.5 -58t41 -50t56.5 -39.5t77 -35.5t82.5 -30t92.5 -29q178 -57 240 -86q128 -59 180 -139q45 -62 45 -150q0 -346 -481 -346q-243 0 -363 129q-98 105 -98 256z" />
<glyph unicode="T" horiz-adv-x="1085" d="M51 1188v82h983v-82h-450v-1188h-82v1188h-451z" />
<glyph unicode="U" horiz-adv-x="1085" d="M51 532v738h82v-738q0 -227 112 -338.5t339 -111.5q173 0 270.5 114t97.5 316v758h82v-758q0 -242 -123 -377t-327 -135q-269 0 -401 139t-132 393z" />
<glyph unicode="V" horiz-adv-x="1224" d="M31 1270h86l514 -1153l479 1153h84l-526 -1268h-70z" />
<glyph unicode="W" horiz-adv-x="1599" d="M31 1270h78l344 -1131l309 1131h76l346 -1131l309 1131h76l-346 -1270h-76l-344 1130l-311 -1130h-76z" />
<glyph unicode="X" horiz-adv-x="1130" d="M41 1270h100l424 -584l424 584h101l-474 -654l461 -634h-102l-410 565l-411 -565h-101l461 634z" />
<glyph unicode="Y" horiz-adv-x="946" d="M31 1270h78l364 -598l365 598h77l-403 -684v-586h-78v586z" />
<glyph unicode="Z" horiz-adv-x="985" d="M41 0v78l815 1114h-758v78h846v-78l-809 -1114h809v-78h-903z" />
<glyph unicode="[" horiz-adv-x="407" d="M80 -205v1639h246v-103h-123v-1433h123v-103h-246z" />
<glyph unicode="\" horiz-adv-x="606" d="M55 1434h119l336 -1434h-119z" />
<glyph unicode="]" horiz-adv-x="356" d="M63 -102h123v1433h-123v103h246v-1639h-246v103z" />
<glyph unicode="^" horiz-adv-x="983" d="M41 553l416 676h82l403 -676h-82l-362 614l-375 -614h-82z" />
<glyph unicode="_" horiz-adv-x="798" d="M0 -84h799v-82h-799v82z" />
<glyph unicode="`" horiz-adv-x="307" d="M41 1061q0 13 34 47.5t48 34.5l143 -185l-20 -20z" />
<glyph unicode="a" horiz-adv-x="778" d="M61 266q0 127 92.5 207t256.5 80q42 0 85 -5.5t68.5 -12t47.5 -13t24 -6.5q0 113 -61 167t-185 54q-54 0 -97 -11t-66 -26.5t-38 -34t-19.5 -31t-4.5 -20.5h-82q0 83 81 144t226 61q100 0 163.5 -22.5t99.5 -75t49.5 -125.5t13.5 -186q0 -196 1 -298t1 -112h-82 q0 100 -2 123q-3 -5 -9.5 -13.5t-30.5 -29.5t-51.5 -37t-74 -29.5t-98.5 -13.5q-144 0 -226 66t-82 200zM143 266q0 -91 58.5 -137.5t167.5 -46.5q111 0 187.5 55.5t76.5 108.5q2 188 2 196q-106 29 -225 29q-70 0 -122 -16t-78.5 -38.5t-42.5 -53.5t-20 -52.5t-4 -44.5z " />
<glyph unicode="b" horiz-adv-x="851" d="M61 0v1434h82v-820q7 24 26.5 54.5t53 66.5t88.5 60t119 24q103 0 192 -59.5t139 -153.5t50 -196t-50 -196.5t-139 -154t-192 -59.5q-57 0 -112 24t-91 57t-58.5 63.5t-25.5 48.5v-193h-82zM155 413v-7q0 -130 72 -220q42 -49 98.5 -78.5t112.5 -29.5t113.5 30t99.5 78 q72 89 72 224q0 134 -72 223q-43 48 -100.5 79t-112.5 31t-111 -31t-100 -79q-70 -85 -72 -220z" />
<glyph unicode="c" horiz-adv-x="755" d="M41 410q0 96 31.5 175.5t83.5 129.5t117 77t135 27q50 0 93.5 -12.5t74 -32.5t55.5 -44t40 -47.5t25.5 -43.5t14.5 -33l4 -12h-82q-3 6 -8 15.5t-24.5 34t-43 43.5t-64 34.5t-85.5 15.5q-120 -2 -202.5 -88.5t-82.5 -238.5q1 -160 71 -244t211 -84h3q45 0 85 12.5 t64.5 31t42.5 36.5t26 30l7 13h82q-3 -8 -10 -22t-33.5 -49.5t-58.5 -62.5t-87 -49t-118 -22q-171 0 -269 106.5t-98 303.5z" />
<glyph unicode="d" horiz-adv-x="851" d="M41 410q0 102 50 196t139 153.5t192 59.5q64 0 119 -24t88.5 -60t53 -66.5t26.5 -54.5v820h82v-1434h-82v193q-3 -18 -25.5 -48.5t-58.5 -63.5t-91 -57t-112 -24q-103 0 -192 59.5t-139 154t-50 196.5zM129 410q0 -135 72 -224q42 -48 99.5 -78t113.5 -30t112.5 29.5 t98.5 78.5q72 90 72 220v7q-2 135 -72 220q-44 48 -100 79t-111 31t-112.5 -31t-100.5 -79q-72 -89 -72 -223z" />
<glyph unicode="e" horiz-adv-x="759" d="M43 410v9q0 84 18 151q19 71 51 117t77.5 76.5t94.5 43t103 12.5q45 0 89.5 -12.5t89 -42t78 -73t54.5 -111t21 -150.5h-598q0 -52 8 -99.5t28.5 -94t52.5 -80t84 -54t118 -20.5q39 0 76.5 12.5t63 31t46 36.5t30.5 30l9 13h82q-3 -8 -10 -22t-33.5 -49.5t-58.5 -62.5 t-87 -49t-118 -22q-171 0 -268.5 106.5t-100.5 303.5zM123 500h514q0 101 -67.5 173t-196.5 72q-65 0 -115.5 -23.5t-78 -61.5t-41 -78t-15.5 -82z" />
<glyph unicode="f" horiz-adv-x="518" d="M20 737v82h144v328q0 31 3.5 62t18.5 74t40 74.5t72.5 54t111.5 22.5q136 0 200 -82l-63 -58q-38 58 -137 58q-47 0 -80 -17t-49 -38t-24.5 -54.5t-9.5 -51.5t-1 -44v-328h225v-82h-225v-737h-82v737h-144z" />
<glyph unicode="g" horiz-adv-x="774" d="M-37 -295q0 55 26.5 101.5t64 73t75 45t63.5 25.5l27 7l74 -27q-10 -3 -27 -8t-59.5 -25t-75 -43.5t-59.5 -63.5t-27 -85q0 -31 10.5 -63t36 -65t62 -58.5t93.5 -41.5t126 -16q150 0 238.5 61t88.5 165q0 78 -33 133t-85 83.5t-115.5 47.5t-127 32.5t-115.5 30t-85 48.5 t-33 81q0 71 78 117q-65 39 -101 104t-36 148q0 55 20 108t59 98t103.5 73t145.5 28h368v-82h-135q94 -89 94 -225q0 -138 -84.5 -222.5t-222.5 -84.5q-82 0 -155 26q-24 -12 -38 -36t-14 -52q0 -26 33 -44.5t85.5 -31t116 -26.5t127 -39.5t115.5 -62.5t84.5 -101.5 t32.5 -150.5q0 -99 -56 -168.5t-146.5 -101t-206.5 -31.5q-183 0 -296.5 90t-113.5 229zM129 512q0 -103 72.5 -164t193.5 -61q103 0 164.5 60.5t61.5 164.5q0 18 -3 38.5t-17 56t-38 62.5t-73 47.5t-115 20.5q-69 0 -120 -23.5t-77 -60.5t-37.5 -72.5t-11.5 -68.5z" />
<glyph unicode="h" horiz-adv-x="706" d="M61 0v1434h82v-758q27 58 94 100.5t152 42.5q73 0 127.5 -27t83 -71t42 -91.5t13.5 -97.5v-532h-82v532q0 30 -6 59t-23 65t-57 58.5t-98 22.5q-63 0 -113.5 -23t-77.5 -57.5t-41 -69t-14 -63.5v-524h-82z" />
<glyph unicode="i" horiz-adv-x="233" d="M61 1063q0 21 17.5 38t38.5 17q22 0 38.5 -16.5t16.5 -38.5q0 -21 -17 -38t-38 -17q-20 0 -38 17.5t-18 37.5zM74 4h82v815h-82v-815z" />
<glyph unicode="j" horiz-adv-x="233" d="M-416 -410h90q1 -10 9 -26.5t26 -40t55 -39.5t86 -16q65 0 110 20.5t70 59t35.5 85t10.5 107.5v1079h82v-1079q0 -354 -308 -354q-72 0 -127 22.5t-83.5 57t-42 66.5t-13.5 58zM61 1063q0 20 18 37.5t38 17.5q21 0 38 -17t17 -38t-17 -38t-38 -17q-20 0 -38 17.5 t-18 37.5z" />
<glyph unicode="k" horiz-adv-x="796" d="M61 0v1434h82v-963l453 348h135l-428 -327l473 -492h-114l-424 440l-95 -71v-369h-82z" />
<glyph unicode="l" d="M61 0v1434h82v-1434h-82z" />
<glyph unicode="m" horiz-adv-x="1218" d="M61 0v809h82v-133q27 58 94 100.5t152 42.5q55 0 100 -17t74 -45.5t46.5 -58.5t25.5 -63q8 22 27 49.5t51 59.5t81.5 53.5t106.5 21.5q73 0 127.5 -27t83 -71t42 -91.5t13.5 -97.5v-532h-82v532q0 30 -6 59t-23 65t-57 58.5t-98 22.5q-54 0 -98.5 -18t-70.5 -43.5 t-44.5 -56.5t-25.5 -55t-7 -40v-524h-82v532q0 30 -6 59t-23 65t-57 58.5t-98 22.5q-63 0 -113.5 -23t-77.5 -57.5t-41 -69t-14 -63.5v-524h-82z" />
<glyph unicode="n" horiz-adv-x="706" d="M61 0v809h82v-133q27 58 94 100.5t152 42.5q73 0 127.5 -27t83 -71t42 -91.5t13.5 -97.5v-532h-82v532q0 30 -6 59t-23 65t-57 58.5t-98 22.5q-63 0 -113.5 -23t-77.5 -57.5t-41 -69t-14 -63.5v-524h-82z" />
<glyph unicode="o" horiz-adv-x="860" d="M41 410q0 103 49.5 196.5t140 153t199.5 59.5t199.5 -59.5t140 -153t49.5 -196.5t-49.5 -196.5t-140 -153.5t-199.5 -60t-199.5 60t-140 153.5t-49.5 196.5zM131 410q0 -77 37.5 -154t108 -129.5t153.5 -52.5t153 52.5t107 129.5t37 154t-37 153t-107 128t-153 52 q-124 0 -211.5 -106t-87.5 -227z" />
<glyph unicode="p" horiz-adv-x="858" d="M61 -614v1433h82v-205q0 17 22.5 49.5t59 68t92.5 61.5t113 26q103 0 193.5 -59.5t142 -153.5t51.5 -196q0 -157 -115.5 -283.5t-271.5 -126.5q-64 0 -121.5 26t-91.5 61.5t-54 68t-20 49.5v-819h-82zM150 358q15 -94 77 -172q86 -98 203 -98q59 0 120 26t101 72 q82 101 82 224q0 122 -82 223q-40 45 -101.5 71.5t-119.5 26.5q-115 0 -203 -98q-62 -78 -77 -172v-103z" />
<glyph unicode="q" horiz-adv-x="839" d="M41 410q0 103 47 196.5t133 153t189 59.5q57 0 113 -26t92 -61.5t58.5 -68t22.5 -49.5v205h82v-1433h-82v819q0 -17 -19.5 -49.5t-53.5 -68t-91.5 -61.5t-121.5 -26q-103 0 -189 60t-133 153.5t-47 196.5zM119 410q0 -128 84 -228q83 -100 207 -100q123 0 206 100 q65 77 80 174v107q-17 109 -98 191.5t-188 82.5q-119 0 -205 -100t-86 -227z" />
<glyph unicode="r" horiz-adv-x="612" d="M61 0v809h82v-133q27 58 94 100.5t152 42.5q110 0 182 -65l-55 -62q-48 45 -127 45q-63 0 -113.5 -23t-77.5 -57.5t-41 -69t-14 -63.5v-524h-82z" />
<glyph unicode="s" horiz-adv-x="686" d="M31 205h86q1 -5 3.5 -13.5t16.5 -29.5t35.5 -37t65 -29.5t100.5 -13.5q31 0 65 7t72 22.5t63 48.5t25 78q0 37 -27 66t-70.5 47.5t-95.5 35.5t-104.5 35t-96 40.5t-70.5 57.5t-27 80q0 47 18 85.5t46 62.5t64.5 40.5t70.5 23.5t67 7q46 0 86 -6t84 -22t70 -50.5t26 -85.5 h-86v17q-11 57 -146 64q-16 1 -34 1q-39 0 -69.5 -6t-49.5 -13.5t-32.5 -21.5t-19.5 -23.5t-9.5 -27t-3.5 -24v-21.5q0 -38 36.5 -66t91 -43.5t118 -37t118 -44.5t91 -67t36.5 -104q0 -107 -84.5 -172.5t-222.5 -65.5q-76 0 -143.5 20.5t-115.5 68.5t-48 116z" />
<glyph unicode="t" horiz-adv-x="430" d="M41 737v82h123v205h82v-205h143v-82h-143v-563q0 -92 73 -92q44 0 70 16v-75q-40 -23 -102 -23q-46 0 -84.5 38.5t-38.5 84.5v614h-123z" />
<glyph unicode="u" horiz-adv-x="706" d="M51 287v532h82v-532q0 -30 6 -59t23 -65t57 -58.5t98 -22.5q51 0 93.5 15.5t70 39t47 52.5t27.5 55.5t8 48.5v526h82v-821h-82v145q-27 -58 -94 -100.5t-152 -42.5q-73 0 -127.5 27t-83 71t-42 91.5t-13.5 97.5z" />
<glyph unicode="v" horiz-adv-x="778" d="M41 819h82l266 -696l266 696h82l-307 -819h-82z" />
<glyph unicode="w" horiz-adv-x="1269" d="M41 819h82l266 -696l205 696h82l205 -696l266 696h82l-307 -819h-82l-205 684l-205 -684h-82z" />
<glyph unicode="x" horiz-adv-x="798" d="M41 0l307 410l-307 409h102l256 -342l256 342h103l-307 -409l307 -410h-103l-256 342l-256 -342h-102z" />
<glyph unicode="y" horiz-adv-x="768" d="M-31 -614q29 52 167.5 338.5t185.5 392.5l-271 702h82l236 -622l297 622h82q-659 -1378 -697 -1433h-82z" />
<glyph unicode="z" horiz-adv-x="679" d="M51 0v82l475 655h-473v82h576v-82l-475 -655h473v-82h-576z" />
<glyph unicode="{" horiz-adv-x="727" d="M61 594v41q8 1 20 3.5t44 19.5t56.5 42.5t44.5 78.5t20 122v143q0 201 97.5 295.5t311.5 94.5h41v-82h-41q-179 0 -253 -70t-74 -238v-143q0 -191 -121 -287q121 -96 121 -286v-103q0 -195 70 -271.5t257 -76.5h41v-82h-41q-216 0 -312.5 100.5t-96.5 329.5v146v-43 q0 69 -19 121.5t-46 78.5t-54.5 42.5t-46.5 19.5z" />
<glyph unicode="|" horiz-adv-x="161" d="M41 -575v2048h80v-2048h-80z" />
<glyph unicode="}" horiz-adv-x="727" d="M31 -123h41q180 0 253.5 69.5t73.5 237.5v144q0 190 121 286q-121 96 -121 287v103q0 195 -70 271.5t-257 76.5h-41v82h41q216 0 312.5 -100.5t96.5 -329.5v-146v43q0 -50 10 -92t26.5 -68.5t36.5 -47t39.5 -31.5t36 -17.5t26.5 -8.5l10 -1v-41q-8 -1 -20 -3.5t-44 -19.5 t-56.5 -42.5t-44.5 -78.5t-20 -122v-144q0 -201 -97.5 -295t-311.5 -94h-41v82z" />
<glyph unicode="~" horiz-adv-x="856" d="M41 573q0 1 8 13.5t25.5 34.5t36.5 41q94 94 194 94q40 0 74.5 -14.5t51 -28t40.5 -37.5q26 -26 40.5 -34.5t37.5 -8.5q47 0 93.5 43t68.5 80l104 -62q0 -1 -8.5 -13.5t-25.5 -34t-36 -40.5q-94 -94 -196 -94q-39 0 -73 14t-51.5 28.5t-39.5 37.5q-25 25 -40 33t-40 8 q-46 0 -94 -43.5t-66 -77.5z" />
<glyph unicode="&#xa1;" d="M41 1208q0 26 17.5 44t43.5 18t44 -18t18 -44t-18 -43.5t-44 -17.5t-43.5 17.5t-17.5 43.5zM51 0h103l-21 1024h-61z" />
<glyph unicode="&#xa2;" horiz-adv-x="776" d="M51 410q0 96 31.5 175.5t83.5 129.5t117 77t135 27q50 0 93.5 -12.5t74 -32.5t55.5 -44t40 -47.5t25.5 -43.5t14.5 -33l4 -12h-82q-3 6 -8 15.5t-24.5 34t-43 43.5t-64 34.5t-85.5 15.5q-120 -2 -202.5 -88.5t-82.5 -238.5q0 -160 70.5 -244.5t214.5 -83.5q45 0 85 12.5 t64.5 31t42.5 36.5t26 30l7 13h82q-3 -8 -10 -22t-33.5 -49.5t-58.5 -62.5t-87 -49t-118 -22q-171 0 -269 106.5t-98 303.5zM348 930h80l2 -1014h-80z" />
<glyph unicode="&#xa3;" horiz-adv-x="931" d="M41 2q0 2 48.5 115t97.5 261.5t49 237.5h-195v82h180q-9 45 -25 106.5t-24 103t-8 77.5q0 88 48.5 155t122 99.5t157.5 32.5q116 0 201 -60t85 -125h-82q-1 4 -3.5 11t-15.5 25t-33 31.5t-60 24.5t-92 11q-112 0 -179 -51.5t-67 -153.5q0 -36 12.5 -96.5t28.5 -120 t18 -70.5h268v-82h-254q0 -97 -35 -205.5t-69.5 -185.5t-34.5 -96q82 16 127 16q67 0 200 -51t169 -51q35 0 64.5 16t45.5 38t24.5 41t8.5 28h82q0 -24 -14 -57t-40 -67t-71.5 -57.5t-99.5 -23.5q-51 0 -100 16t-82 35t-83.5 35t-103.5 16q-35 0 -91.5 -15t-95.5 -30 l-40 -16l-18 -6t-11.5 -3t-7.5 1.5t-2 7.5zM80 2h2h-2zM82 4h2h-2zM84 4h2h-2zM86 6h2h-2zM88 4q22 11 31 14q-9 -3 -31 -14zM90 6q22 11 31 14q-9 -3 -31 -14z" />
<glyph unicode="&#xa4;" horiz-adv-x="700" d="M41 494q0 100 59 188l-53 51l59 60l48 -50q90 76 196 76q107 0 197 -76l49 50l57 -60l-53 -51q59 -83 59 -188q0 -106 -61 -195l55 -55l-57 -58l-51 52q-87 -74 -195 -74t-192 74l-52 -52l-59 58l55 55q-61 89 -61 195zM123 489q0 -118 68 -192t159 -74q92 0 163 74.5 t71 191.5q0 116 -71.5 190.5t-162.5 74.5t-159 -74t-68 -191z" />
<glyph unicode="&#xa5;" horiz-adv-x="966" d="M41 1270h78l364 -598l365 598h78l-398 -672h277v-82h-283v-186h283v-82h-283v-248h-78v248h-282v82h282v186h-282v82h274z" />
<glyph unicode="&#xa6;" horiz-adv-x="161" d="M41 -262v717h80v-717h-80zM41 659v713h80v-713h-80z" />
<glyph unicode="&#xa7;" horiz-adv-x="747" d="M41 674q0 81 36 127.5t79 66.5q-70 50 -70 142q0 47 18 85.5t46 62.5t64.5 40.5t70.5 23.5t67 7q123 0 200 -47t77 -117h-86q-1 4 -3.5 10.5t-15 23.5t-30.5 30t-53.5 23.5t-80.5 10.5q-46 0 -82 -12t-56 -29.5t-33 -39.5t-17 -39.5t-4 -32.5q0 -37 23 -63t61 -40 t86.5 -27.5t99 -23.5t99 -30t86.5 -46t61 -71.5t23 -106.5q0 -81 -36 -127.5t-79 -66.5q70 -50 70 -142q0 -58 -27 -103t-69 -69t-85.5 -35.5t-85.5 -11.5q-123 0 -199.5 47t-76.5 117h88q-1 0 2.5 -10t15 -24.5t30 -29t53.5 -24.5t79 -10q57 0 98.5 17t60 44t26.5 49.5 t8 42.5q0 37 -23 63t-61 40t-86.5 27.5t-99 23.5t-99 30t-86.5 46t-61 71.5t-23 106.5zM115 684q0 -47 19 -82t47.5 -55t73 -36t83.5 -24t91 -20t85 -23q16 7 31.5 16t38 26.5t36 45t13.5 60.5q0 47 -19 82t-47.5 54.5t-72 35.5t-82.5 24t-91 20t-85 23q-17 -6 -33 -15.5 t-38.5 -26.5t-36 -44.5t-13.5 -60.5z" />
<glyph unicode="&#xa8;" horiz-adv-x="460" d="M59 1024q0 19 14 33t31 14q19 0 33.5 -14t14.5 -33q0 -17 -14.5 -31t-33.5 -14q-17 0 -31 14t-14 31zM281 1024q0 19 14 33t31 14q19 0 33 -14t14 -33q0 -17 -14 -31t-33 -14q-17 0 -31 14t-14 31z" />
<glyph unicode="&#xa9;" horiz-adv-x="1024" d="M41 471q0 194 137 334q140 137 334 137t334 -137q137 -140 137 -334t-137 -334q-140 -137 -334 -137t-334 137q-137 140 -137 334zM82 471q0 -179 126 -304.5t304 -125.5t304 125.5t126 304.5t-126 304.5t-304 125.5t-304 -125.5t-126 -304.5zM268 471q0 126 72.5 199 t171.5 73q45 0 83 -15.5t59.5 -37.5t36.5 -43.5t21 -36.5l5 -16h-55q-2 4 -5 10.5t-16 23t-29 29t-42.5 22.5t-57.5 9q-78 0 -133 -58t-55 -159q0 -219 188 -219q48 1 85.5 22t50.5 42l14 20h55q-2 -6 -6.5 -15t-22.5 -32.5t-39 -41.5t-58 -33t-79 -15q-114 0 -179 70 t-65 202z" />
<glyph unicode="&#xaa;" horiz-adv-x="389" d="M41 1008q0 59 43.5 96t120.5 37q25 0 49.5 -4.5t39 -8.5t15.5 -4q0 103 -114 103q-25 0 -45.5 -5t-31.5 -12.5t-18 -16t-9.5 -14.5t-2.5 -10h-37q0 40 38 68.5t106 28.5q90 0 121.5 -43.5t31.5 -149.5v-190h-39v57q-4 -6 -12.5 -15.5t-41 -25.5t-71.5 -16q-67 0 -105 31 t-38 94zM80 1008q0 -86 104 -86q53 0 89 25t36 50v93q-54 14 -104 14q-41 0 -68.5 -10.5t-38.5 -28t-14.5 -30.5t-3.5 -27z" />
<glyph unicode="&#xab;" horiz-adv-x="716" d="M41 410l307 307l41 -41q-5 -11 -14 -29t-35.5 -63.5t-52.5 -81t-60 -64t-63 -28.5q29 0 62.5 -27.5t61 -67t51 -78.5t37.5 -67l13 -27l-41 -41zM328 410l307 307l41 -41q-5 -11 -14 -29t-35.5 -63.5t-52.5 -81t-60 -64t-63 -28.5q29 0 62.5 -27.5t61 -67t51 -78.5 t36.5 -67l14 -27l-41 -41z" />
<glyph unicode="&#xac;" horiz-adv-x="733" d="M41 590v74h651v-299h-74v225h-577z" />
<glyph unicode="&#xad;" horiz-adv-x="798" d="M0 532v82h799v-82h-799z" />
<glyph unicode="&#xae;" horiz-adv-x="1024" d="M41 471q0 194 137 334q140 137 334 137t334 -137q137 -140 137 -334t-137 -334q-140 -137 -334 -137t-334 137q-137 140 -137 334zM82 471q0 -179 126 -304.5t304 -125.5t304 125.5t126 304.5t-126 304.5t-304 125.5t-304 -125.5t-126 -304.5zM385 205v555h135 q44 0 77 -14.5t50 -38t25 -46.5t8 -45q0 -38 -21 -75.5t-67 -55.5q3 -1 8 -4t8 -4q64 -50 64 -139q0 -37 10 -70.5t20 -47.5l11 -15h-43q-35 49 -35 133q0 36 -12 63t-27.5 40.5t-37 21t-33.5 9t-23 1.5h-82v-268h-35zM420 508h98q69 0 100 39q27 31 27 69q0 40 -24 68 q-33 39 -101 39h-100v-215z" />
<glyph unicode="&#xaf;" horiz-adv-x="573" d="M80 1073q-33 41 0 82h418q25 -41 0 -82h-418z" />
<glyph unicode="&#xb0;" horiz-adv-x="450" d="M41 1249q0 77 54 131t130 54q77 0 131 -54t54 -131q0 -76 -54 -130t-131 -54t-130.5 53.5t-53.5 130.5zM82 1249q0 -61 41 -102t102 -41q62 0 103 41t41 102t-41.5 102.5t-102.5 41.5t-102 -41t-41 -103z" />
<glyph unicode="&#xb1;" horiz-adv-x="614" d="M41 231v82h532v-82h-532zM41 594v82h225v225h82v-225h225v-82h-225v-225h-82v225h-225z" />
<glyph unicode="&#xb2;" horiz-adv-x="323" d="M41 1020v27q0 25 32.5 65t72 75t72 74t32.5 62q0 84 -90 84q-31 0 -50.5 -8.5t-25.5 -24t-7 -21t-1 -16.5h-27q0 35 24.5 66t86.5 31q45 0 80.5 -25.5t35.5 -85.5q0 -32 -32 -73.5t-71 -74.5t-71 -69t-32 -59h213v-27h-242z" />
<glyph unicode="&#xb3;" horiz-adv-x="335" d="M41 1120v4h27v-4q1 -13 7.5 -26.5t28 -28t54.5 -14.5q41 0 75.5 25t34.5 71q0 40 -35 65t-75 25h-2v27h2q25 0 51.5 26t26.5 51q0 28 -21.5 46t-56.5 18q-26 0 -51 -12t-25 -31v-4h-27v4q0 31 31.5 50.5t71.5 19.5q39 0 67 -17q37 -24 37 -74q0 -49 -49 -86 q82 -41 82 -108q0 -53 -40 -88t-97 -35q-60 0 -90 35q-27 29 -27 61z" />
<glyph unicode="&#xb4;" horiz-adv-x="307" d="M41 956l143 185q14 0 48 -34.5t34 -47.5l-205 -123z" />
<glyph unicode="&#xb6;" horiz-adv-x="935" d="M61 1069q0 148 103.5 254t251.5 111h458v-41h-204v-1393h-41v1393h-123v-1393h-41v702h-37q-152 0 -259.5 107.5t-107.5 259.5z" />
<glyph unicode="&#xb7;" horiz-adv-x="174" d="M41 711q0 19 14 33t31 14q19 0 33 -14t14 -33q0 -17 -14 -31t-33 -14q-17 0 -31 14t-14 31z" />
<glyph unicode="&#xb8;" horiz-adv-x="307" d="M31 -410l12 41h51q14 0 32 3t42 11t39.5 27t15.5 45q0 19 -4.5 33t-15 22t-18.5 13.5t-26 7.5t-25 2.5t-28.5 0t-23.5 -0.5l92 205h49l-65 -154h13t28 -6.5t35.5 -18.5t28.5 -40.5t13 -67.5q0 -51 -41 -87t-114 -36h-90z" />
<glyph unicode="&#xb9;" horiz-adv-x="178" d="M41 1366v33l70 37h26v-412h-26v377z" />
<glyph unicode="&#xba;" horiz-adv-x="471" d="M41 1229q0 79 56.5 142t138.5 63t138 -62.5t56 -142.5t-56 -142.5t-138 -62.5t-138.5 63t-56.5 142zM86 1229q0 -61 43.5 -114.5t106.5 -53.5q61 0 104 53.5t43 114.5t-43 113.5t-104 52.5q-63 0 -106.5 -52.5t-43.5 -113.5z" />
<glyph unicode="&#xbb;" horiz-adv-x="716" d="M41 143q5 11 14 29t35.5 64t52.5 81t60 64t63 29q-29 0 -62.5 27.5t-61 66.5t-51 78t-37.5 66l-13 28l41 41l307 -307l-307 -308zM328 143q5 11 14 29t35.5 64t52.5 81t60 64t63 29q-29 0 -62.5 27.5t-61 66.5t-51 78t-36.5 66l-14 28l41 41l307 -307l-307 -308z" />
<glyph unicode="&#xbf;" horiz-adv-x="788" d="M51 -82q0 88 19.5 159t46 113t69 77t71 49t71 31t51.5 22v204h102v-286q-14 -6 -49.5 -17t-61 -21t-60.5 -27.5t-60 -42.5t-48.5 -60t-35.5 -86.5t-12 -114.5q0 -71 20.5 -125.5t50.5 -84t71.5 -48t75 -24t68.5 -5.5q40 0 91.5 17t94 52t42.5 77h80q0 -38 -16.5 -76 t-50.5 -73t-97 -57t-144 -22q-26 0 -54 3t-67.5 13t-75 26t-71.5 44.5t-62 66t-42.5 93t-16.5 123.5zM373 758q0 26 17.5 43.5t43.5 17.5t44 -17.5t18 -43.5t-18 -44t-44 -18t-43.5 18t-17.5 44z" />
<glyph unicode="&#xc0;" horiz-adv-x="1267" d="M51 0l522 1270h82l562 -1270h-87l-194 438h-619l-182 -438h-84zM344 502h563l-293 665zM520 1513q0 13 34 47.5t48 34.5l143 -184l-20 -20z" />
<glyph unicode="&#xc1;" horiz-adv-x="1267" d="M51 0l522 1270h82l562 -1270h-87l-194 438h-619l-182 -438h-84zM344 502h563l-293 665zM520 1409l144 184q14 0 47.5 -34.5t33.5 -47.5l-204 -122z" />
<glyph unicode="&#xc2;" horiz-adv-x="1267" d="M51 0l522 1270h82l562 -1270h-87l-194 438h-619l-182 -438h-84zM344 502h563l-293 665zM449 1370l184 189l184 -185l-20 -20q-123 82 -164 123q-18 -18 -59 -49t-73 -52l-32 -22z" />
<glyph unicode="&#xc3;" horiz-adv-x="1267" d="M51 0l522 1270h82l562 -1270h-87l-194 438h-619l-182 -438h-84zM344 502h563l-293 665zM373 1462q0 1 5.5 9.5t17 23t24.5 27.5q63 63 131 63q58 0 111 -53q17 -17 27 -23t26 -6q31 0 62 29t46 53l70 -41q0 -1 -5.5 -9t-17 -22.5t-24.5 -27.5q-64 -64 -131 -64 q-26 0 -49.5 10t-34.5 19t-27 25t-26.5 22t-26.5 6q-31 0 -63 -29t-46 -53z" />
<glyph unicode="&#xc4;" horiz-adv-x="1267" d="M51 0l522 1270h82l562 -1270h-87l-194 438h-619l-182 -438h-84zM344 502h563l-293 665zM477 1477q0 19 14 33t31 14q19 0 33 -14t14 -33q0 -17 -14 -31t-33 -14q-17 0 -31 14t-14 31zM698 1477q0 19 14 33t31 14q19 0 33.5 -14t14.5 -33q0 -17 -14.5 -31t-33.5 -14 q-17 0 -31 14t-14 31z" />
<glyph unicode="&#xc5;" horiz-adv-x="1267" d="M51 0l522 1270h82l562 -1270h-87l-194 438h-619l-182 -438h-84zM344 502h563l-293 665zM500 1516q0 60 38.5 101.5t94.5 41.5t94.5 -41.5t38.5 -101.5q0 -59 -39 -100.5t-94 -41.5t-94 41.5t-39 100.5zM561 1516q0 -31 19.5 -51.5t52.5 -20.5q32 0 53 21t21 51 q0 37 -21.5 55t-52.5 18q-32 0 -52 -22.5t-20 -50.5z" />
<glyph unicode="&#xc6;" horiz-adv-x="1662" d="M41 2l801 1270h731v-68h-647v-499h608v-68h-608v-567h686v-68h-770v438h-443l-274 -438h-84zM440 504h402v637z" />
<glyph unicode="&#xc7;" horiz-adv-x="1161" d="M51 635q0 181 71.5 325.5t204 227t302.5 82.5q71 0 135.5 -16t111 -42t87 -58t66.5 -63.5t45 -60t27 -45.5t9 -22l-74 -23q-30 69 -102 137q-123 111 -305 111q-221 0 -358.5 -153.5t-137.5 -399.5t137.5 -399.5t358.5 -153.5q185 0 305 111q72 68 102 137l74 -23 q-1 -5 -9 -22t-27 -45.5t-45 -60t-66.5 -63.5t-87 -58t-111 -42t-135.5 -16q-170 0 -302.5 82t-204 226.5t-71.5 326.5zM457 -410l12 41h51q14 0 32 3t42 11t39.5 27t15.5 45q0 19 -4.5 33t-15 22t-18.5 13.5t-26 7.5t-25 2.5t-28.5 0t-23.5 -0.5l92 205h49l-65 -154h13 t28 -6.5t35.5 -18.5t28.5 -40.5t13 -67.5q0 -51 -41 -87t-114 -36h-90z" />
<glyph unicode="&#xc8;" horiz-adv-x="892" d="M61 0v1270h732v-68h-648v-500h609v-67h-609v-567h686v-68h-770zM334 1513q0 13 34 47.5t48 34.5l143 -184l-20 -20z" />
<glyph unicode="&#xc9;" horiz-adv-x="892" d="M61 0v1270h732v-68h-648v-500h609v-67h-609v-567h686v-68h-770zM334 1409l143 184q14 0 48 -34.5t34 -47.5l-205 -122z" />
<glyph unicode="&#xca;" horiz-adv-x="892" d="M61 0v1270h732v-68h-648v-500h609v-67h-609v-567h686v-68h-770zM262 1370l184 189l185 -185l-21 -20q-123 82 -164 123q-18 -18 -59 -49t-73 -52l-31 -22z" />
<glyph unicode="&#xcb;" horiz-adv-x="892" d="M61 0v1270h732v-68h-648v-500h609v-67h-609v-567h686v-68h-770zM289 1477q0 19 14 33t31 14q19 0 33 -14t14 -33q0 -17 -14 -31t-33 -14q-17 0 -31 14t-14 31zM510 1477q0 19 14 33t31 14q19 0 33 -14t14 -33q0 -17 -14 -31t-33 -14q-17 0 -31 14t-14 31z" />
<glyph unicode="&#xcc;" d="M-10 1513q0 13 34 47.5t48 34.5l143 -184l-20 -20zM61 0v1270h82v-1270h-82z" />
<glyph unicode="&#xcd;" d="M-10 1409l143 184q14 0 48 -34.5t34 -47.5l-205 -122zM61 0v1270h82v-1270h-82z" />
<glyph unicode="&#xce;" d="M-82 1370l184 189l185 -185l-21 -20q-123 82 -164 123q-18 -18 -59 -49t-73 -52l-31 -22zM61 0v1270h82v-1270h-82z" />
<glyph unicode="&#xcf;" d="M-53 1477q0 19 14 33t31 14q19 0 33 -14t14 -33q0 -17 -14 -31t-33 -14q-17 0 -31 14t-14 31zM61 0h82v1270h-82v-1270zM168 1477q0 19 14 33t31 14q19 0 33 -14t14 -33q0 -17 -14 -31t-33 -14q-17 0 -31 14t-14 31z" />
<glyph unicode="&#xd0;" horiz-adv-x="1095" d="M-49 631v82h110v557h349q185 0 327.5 -71.5t224.5 -212t82 -331.5q0 -290 -178 -472.5t-456 -182.5h-349v631h-110zM143 82h267q240 0 396.5 157.5t156.5 415.5q0 249 -152 391t-401 142h-267v-475h414v-82h-414v-549z" />
<glyph unicode="&#xd1;" horiz-adv-x="1085" d="M61 0v1270h86l799 -1147v1147h78v-1270h-86l-799 1147v-1147h-78zM283 1462q0 1 5.5 9.5t17 23t24.5 27.5q63 63 131 63q26 0 49.5 -9.5t34 -18.5t26.5 -25q29 -29 54 -29q31 0 62 29t46 53l70 -41q0 -1 -5.5 -9t-17 -22.5t-24.5 -27.5q-64 -64 -131 -64q-26 0 -49.5 10 t-34.5 19t-27 25t-26.5 22t-26.5 6q-31 0 -63 -29t-46 -53z" />
<glyph unicode="&#xd2;" horiz-adv-x="1249" d="M51 635q0 152 46.5 274.5t126.5 200.5t182.5 119t218.5 41q118 0 219 -36.5t181.5 -110.5t126.5 -199t46 -289t-46 -289t-126.5 -199t-181.5 -110.5t-219 -36.5q-116 0 -218.5 41t-182.5 119t-126.5 200.5t-46.5 274.5zM133 635q0 -112 27.5 -205t74 -156.5t110 -107.5 t134 -64t146.5 -20q38 0 75 4t87.5 18t94 37t88 65t75.5 98.5t51 141.5t20 189t-20 189t-51 141.5t-75.5 98.5t-88 65t-94 37t-87.5 18t-75 4q-76 0 -146.5 -20t-134 -64t-110 -107.5t-74 -156.5t-27.5 -205zM512 1513q0 13 34 47.5t48 34.5l143 -184l-20 -20z" />
<glyph unicode="&#xd3;" horiz-adv-x="1249" d="M51 635q0 152 46.5 274.5t126.5 200.5t182.5 119t218.5 41q118 0 219 -36.5t181.5 -110.5t126.5 -199t46 -289t-46 -289t-126.5 -199t-181.5 -110.5t-219 -36.5q-116 0 -218.5 41t-182.5 119t-126.5 200.5t-46.5 274.5zM133 635q0 -112 27.5 -205t74 -156.5t110 -107.5 t134 -64t146.5 -20q38 0 75 4t87.5 18t94 37t88 65t75.5 98.5t51 141.5t20 189t-20 189t-51 141.5t-75.5 98.5t-88 65t-94 37t-87.5 18t-75 4q-76 0 -146.5 -20t-134 -64t-110 -107.5t-74 -156.5t-27.5 -205zM512 1409l143 184q14 0 48 -34.5t34 -47.5l-205 -122z" />
<glyph unicode="&#xd4;" horiz-adv-x="1249" d="M51 635q0 152 46.5 274.5t126.5 200.5t182.5 119t218.5 41q118 0 219 -36.5t181.5 -110.5t126.5 -199t46 -289t-46 -289t-126.5 -199t-181.5 -110.5t-219 -36.5q-116 0 -218.5 41t-182.5 119t-126.5 200.5t-46.5 274.5zM133 635q0 -112 27.5 -205t74 -156.5t110 -107.5 t134 -64t146.5 -20q38 0 75 4t87.5 18t94 37t88 65t75.5 98.5t51 141.5t20 189t-20 189t-51 141.5t-75.5 98.5t-88 65t-94 37t-87.5 18t-75 4q-76 0 -146.5 -20t-134 -64t-110 -107.5t-74 -156.5t-27.5 -205zM440 1370l185 189l184 -185l-21 -20q-122 82 -163 123 q-18 -18 -59 -49t-73 -52l-32 -22z" />
<glyph unicode="&#xd5;" horiz-adv-x="1249" d="M51 635q0 152 46.5 274.5t126.5 200.5t182.5 119t218.5 41q118 0 219 -36.5t181.5 -110.5t126.5 -199t46 -289t-46 -289t-126.5 -199t-181.5 -110.5t-219 -36.5q-116 0 -218.5 41t-182.5 119t-126.5 200.5t-46.5 274.5zM133 635q0 -112 27.5 -205t74 -156.5t110 -107.5 t134 -64t146.5 -20q38 0 75 4t87.5 18t94 37t88 65t75.5 98.5t51 141.5t20 189t-20 189t-51 141.5t-75.5 98.5t-88 65t-94 37t-87.5 18t-75 4q-76 0 -146.5 -20t-134 -64t-110 -107.5t-74 -156.5t-27.5 -205zM365 1462q0 1 5.5 9.5t17 23t24.5 27.5q63 63 131 63 q26 0 49.5 -9.5t34 -18.5t26.5 -25q29 -29 54 -29q31 0 62 29t46 53l70 -41q0 -1 -5.5 -9t-17 -22.5t-24.5 -27.5q-64 -64 -131 -64q-26 0 -49.5 10t-34.5 19t-27 25t-26.5 22t-26.5 6q-31 0 -63 -29t-46 -53z" />
<glyph unicode="&#xd6;" horiz-adv-x="1249" d="M51 635q0 152 46.5 274.5t126.5 200.5t182.5 119t218.5 41q118 0 219 -36.5t181.5 -110.5t126.5 -199t46 -289t-46 -289t-126.5 -199t-181.5 -110.5t-219 -36.5q-116 0 -218.5 41t-182.5 119t-126.5 200.5t-46.5 274.5zM133 635q0 -112 27.5 -205t74 -156.5t110 -107.5 t134 -64t146.5 -20q38 0 75 4t87.5 18t94 37t88 65t75.5 98.5t51 141.5t20 189t-20 189t-51 141.5t-75.5 98.5t-88 65t-94 37t-87.5 18t-75 4q-76 0 -146.5 -20t-134 -64t-110 -107.5t-74 -156.5t-27.5 -205zM467 1477q0 19 14 33t31 14q19 0 33 -14t14 -33q0 -17 -14 -31 t-33 -14q-17 0 -31 14t-14 31zM688 1477q0 19 14 33t31 14q19 0 33 -14t14 -33q0 -17 -14 -31t-33 -14q-17 0 -31 14t-14 31z" />
<glyph unicode="&#xd7;" horiz-adv-x="516" d="M41 408l160 159l-160 160l57 57l160 -159l160 159l57 -57l-158 -160l158 -159l-57 -58l-160 160l-160 -160z" />
<glyph unicode="&#xd8;" horiz-adv-x="1249" d="M51 635q0 152 46.5 274.5t126.5 200.5t182.5 119t218.5 41q85 0 161 -21l31 80h119l-45 -115q143 -67 225 -211.5t82 -367.5q0 -164 -46 -289t-126.5 -199t-181.5 -110.5t-219 -36.5q-95 0 -181 27l-30 -82h-121l47 127q-133 74 -211 217.5t-78 345.5zM133 635 q0 -177 64.5 -300t173.5 -188l387 1027q-71 14 -133 14q-76 0 -146.5 -20t-134 -64t-110 -107.5t-74 -156.5t-27.5 -205zM473 102q70 -20 152 -20q38 0 75 4t87.5 18t94 37t88 65t75.5 98.5t51 141.5t20 189q0 109 -20.5 196t-58 146t-80 97.5t-95.5 62.5z" />
<glyph unicode="&#xd9;" horiz-adv-x="1085" d="M51 532v738h82v-738q0 -227 112 -338.5t339 -111.5q173 0 270.5 114t97.5 316v758h82v-758q0 -242 -123 -377t-327 -135q-269 0 -401 139t-132 393zM430 1513q0 13 34 47.5t48 34.5l143 -184l-20 -20z" />
<glyph unicode="&#xda;" horiz-adv-x="1085" d="M51 532v738h82v-738q0 -227 112 -338.5t339 -111.5q173 0 270.5 114t97.5 316v758h82v-758q0 -242 -123 -377t-327 -135q-269 0 -401 139t-132 393zM430 1409l143 184q14 0 48 -34.5t34 -47.5l-204 -122z" />
<glyph unicode="&#xdb;" horiz-adv-x="1085" d="M51 532v738h82v-738q0 -227 112 -338.5t339 -111.5q173 0 270.5 114t97.5 316v758h82v-758q0 -242 -123 -377t-327 -135q-269 0 -401 139t-132 393zM358 1370l185 189l184 -185l-20 -20q-123 82 -164 123q-18 -18 -59 -49t-73 -52l-32 -22z" />
<glyph unicode="&#xdc;" horiz-adv-x="1085" d="M51 532v738h82v-738q0 -227 112 -338.5t339 -111.5q173 0 270.5 114t97.5 316v758h82v-758q0 -242 -123 -377t-327 -135q-269 0 -401 139t-132 393zM385 1477q0 19 14 33t31 14q19 0 33 -14t14 -33q0 -17 -14 -31t-33 -14q-17 0 -31 14t-14 31zM606 1477q0 19 14 33 t31 14q19 0 33 -14t14 -33q0 -17 -14 -31t-33 -14q-17 0 -31 14t-14 31z" />
<glyph unicode="&#xdd;" horiz-adv-x="946" d="M31 1270h78l364 -598l365 598h77l-403 -684v-586h-78v586zM360 1409l144 184q14 0 48 -34.5t34 -47.5l-205 -122z" />
<glyph unicode="&#xdf;" horiz-adv-x="890" d="M51 676v82h82v20v28q-1 26 0 54.5t1.5 59t5.5 62t11 61.5t18.5 59t28 54t39 46t52 36t67.5 23.5t84 8.5q71 0 126.5 -18.5t88.5 -47t55 -67.5t30 -76.5t8 -77.5q0 -46 -17 -86.5t-41 -69.5t-48 -54t-41 -50t-17 -47q0 -16 14.5 -33t38 -33.5t52 -35.5t57 -44.5t52 -55.5 t38 -73.5t14.5 -93.5q0 -65 -18.5 -118t-48.5 -87.5t-70.5 -58t-82.5 -33.5t-87 -10q-95 0 -150 31.5t-55 91.5h82q0 -13 14 -21q35 -20 109 -20q14 0 29 1.5t38.5 7t43.5 14.5t42 26t37 40t25 58t10 78q0 58 -37 115t-88 92q-27 16 -47.5 30t-44 35t-36.5 46t-13 51 q0 29 13.5 60.5t27 50t39.5 49.5q6 7 29 33t30 36t16 32.5t9 45.5q0 39 -9.5 72t-33 65t-70.5 50t-113 18q-86 0 -135 -49q-33 -33 -52.5 -71.5t-27 -90t-9 -81t-1.5 -89.5v-807h-82v676h-82z" />
<glyph unicode="&#xe0;" horiz-adv-x="757" d="M51 266q0 127 92 207t256 80q42 0 85 -5.5t69 -12t48 -13t24 -6.5q0 113 -61 167t-185 54q-54 0 -97 -11t-66 -26.5t-38 -34t-19.5 -31t-4.5 -20.5h-82q0 83 81 144t226 61q100 0 163.5 -22.5t99.5 -75t49.5 -125.5t13.5 -186q0 -196 1 -298t1 -112h-82q0 100 -2 123 q-3 -5 -9.5 -13.5t-30.5 -29.5t-52 -37t-74.5 -29.5t-98.5 -13.5q-143 0 -225 66t-82 200zM133 266q0 -91 58 -137.5t167 -46.5q111 0 188 55.5t77 108.5q2 188 2 196q-106 29 -226 29q-70 0 -122 -16t-78.5 -38.5t-42.5 -53.5t-19.5 -52.5t-3.5 -44.5zM266 1061 q0 13 34 47.5t48 34.5l144 -185l-21 -20z" />
<glyph unicode="&#xe1;" horiz-adv-x="757" d="M51 266q0 127 92 207t256 80q42 0 85 -5.5t69 -12t48 -13t24 -6.5q0 113 -61 167t-185 54q-54 0 -97 -11t-66 -26.5t-38 -34t-19.5 -31t-4.5 -20.5h-82q0 83 81 144t226 61q100 0 163.5 -22.5t99.5 -75t49.5 -125.5t13.5 -186q0 -196 1 -298t1 -112h-82q0 100 -2 123 q-3 -5 -9.5 -13.5t-30.5 -29.5t-52 -37t-74.5 -29.5t-98.5 -13.5q-143 0 -225 66t-82 200zM133 266q0 -91 58 -137.5t167 -46.5q111 0 188 55.5t77 108.5q2 188 2 196q-106 29 -226 29q-70 0 -122 -16t-78.5 -38.5t-42.5 -53.5t-19.5 -52.5t-3.5 -44.5zM266 956l144 185 q14 0 48 -34.5t34 -47.5l-205 -123z" />
<glyph unicode="&#xe2;" horiz-adv-x="757" d="M51 266q0 127 92 207t256 80q42 0 85 -5.5t69 -12t48 -13t24 -6.5q0 113 -61 167t-185 54q-54 0 -97 -11t-66 -26.5t-38 -34t-19.5 -31t-4.5 -20.5h-82q0 83 81 144t226 61q100 0 163.5 -22.5t99.5 -75t49.5 -125.5t13.5 -186q0 -196 1 -298t1 -112h-82q0 100 -2 123 q-3 -5 -9.5 -13.5t-30.5 -29.5t-52 -37t-74.5 -29.5t-98.5 -13.5q-143 0 -225 66t-82 200zM133 266q0 -91 58 -137.5t167 -46.5q111 0 188 55.5t77 108.5q2 188 2 196q-106 29 -226 29q-70 0 -122 -16t-78.5 -38.5t-42.5 -53.5t-19.5 -52.5t-3.5 -44.5zM195 918l184 188 l184 -184l-20 -21q-123 82 -164 123q-18 -18 -59 -49t-73 -53l-32 -21z" />
<glyph unicode="&#xe3;" horiz-adv-x="757" d="M51 266q0 127 92 207t256 80q42 0 85 -5.5t69 -12t48 -13t24 -6.5q0 113 -61 167t-185 54q-54 0 -97 -11t-66 -26.5t-38 -34t-19.5 -31t-4.5 -20.5h-82q0 83 81 144t226 61q100 0 163.5 -22.5t99.5 -75t49.5 -125.5t13.5 -186q0 -196 1 -298t1 -112h-82q0 100 -2 123 q-3 -5 -9.5 -13.5t-30.5 -29.5t-52 -37t-74.5 -29.5t-98.5 -13.5q-143 0 -225 66t-82 200zM119 1010q0 1 5.5 9t17 22.5t24.5 27.5q64 64 131 64q26 0 49.5 -10t34.5 -19t27 -25t26.5 -22t26.5 -6q31 0 62 29t46 53l70 -41q0 -1 -5.5 -9.5t-17 -23t-24.5 -27.5 q-63 -63 -131 -63q-58 0 -111 53q-17 17 -27 23t-26 6q-31 0 -63 -29t-46 -53zM133 266q0 -91 58 -137.5t167 -46.5q111 0 188 55.5t77 108.5q2 188 2 196q-106 29 -226 29q-70 0 -122 -16t-78.5 -38.5t-42.5 -53.5t-19.5 -52.5t-3.5 -44.5z" />
<glyph unicode="&#xe4;" horiz-adv-x="757" d="M51 266q0 127 92 207t256 80q42 0 85 -5.5t69 -12t48 -13t24 -6.5q0 113 -61 167t-185 54q-54 0 -97 -11t-66 -26.5t-38 -34t-19.5 -31t-4.5 -20.5h-82q0 83 81 144t226 61q100 0 163.5 -22.5t99.5 -75t49.5 -125.5t13.5 -186q0 -196 1 -298t1 -112h-82q0 100 -2 123 q-3 -5 -9.5 -13.5t-30.5 -29.5t-52 -37t-74.5 -29.5t-98.5 -13.5q-143 0 -225 66t-82 200zM133 266q0 -91 58 -137.5t167 -46.5q111 0 188 55.5t77 108.5q2 188 2 196q-106 29 -226 29q-70 0 -122 -16t-78.5 -38.5t-42.5 -53.5t-19.5 -52.5t-3.5 -44.5zM221 1024q0 19 14 33 t31 14q19 0 33 -14t14 -33q0 -17 -14 -31t-33 -14q-17 0 -31 14t-14 31zM442 1024q0 19 14 33t31 14q19 0 33.5 -14t14.5 -33q0 -17 -14.5 -31t-33.5 -14q-17 0 -31 14t-14 31z" />
<glyph unicode="&#xe5;" horiz-adv-x="757" d="M51 266q0 127 92 207t256 80q42 0 85 -5.5t69 -12t48 -13t24 -6.5q0 113 -61 167t-185 54q-54 0 -97 -11t-66 -26.5t-38 -34t-19.5 -31t-4.5 -20.5h-82q0 83 81 144t226 61q100 0 163.5 -22.5t99.5 -75t49.5 -125.5t13.5 -186q0 -196 1 -298t1 -112h-82q0 100 -2 123 q-3 -5 -9.5 -13.5t-30.5 -29.5t-52 -37t-74.5 -29.5t-98.5 -13.5q-143 0 -225 66t-82 200zM133 266q0 -91 58 -137.5t167 -46.5q111 0 188 55.5t77 108.5q2 188 2 196q-106 29 -226 29q-70 0 -122 -16t-78.5 -38.5t-42.5 -53.5t-19.5 -52.5t-3.5 -44.5zM246 1063 q0 60 38.5 101.5t94.5 41.5t94.5 -41.5t38.5 -101.5q0 -59 -39 -100t-94 -41t-94 41t-39 100zM307 1063q0 -31 19.5 -51.5t52.5 -20.5q32 0 53 21t21 51q0 37 -21.5 55.5t-52.5 18.5q-32 0 -52 -23t-20 -51z" />
<glyph unicode="&#xe6;" horiz-adv-x="1355" d="M51 266q0 121 87.5 177.5t260.5 58.5q55 0 111.5 -2t85.5 -4l29 -2q0 116 -62.5 179.5t-185.5 63.5q-54 0 -96 -11t-65 -26.5t-38 -34t-19.5 -31t-4.5 -20.5h-82q0 83 80.5 144t224.5 61q130 0 199.5 -40.5t99.5 -129.5q45 87 123.5 128.5t173.5 41.5q45 0 89.5 -13 t89 -43.5t78 -75t54.5 -112.5t21 -151l-598 -2q0 -52 8 -98.5t28.5 -92t52.5 -77.5t83.5 -52t117.5 -20q28 0 56 7t49.5 17.5t41 24t33.5 26.5t24.5 23.5t16.5 17.5l5 7h80q-3 -8 -10 -22t-33 -49.5t-58 -62.5t-87 -49t-118 -22q-235 0 -325 190q-3 -7 -13 -23t-14 -24 q-10 -16 -27 -34t-51.5 -45.5t-89.5 -45.5t-119 -18q-143 0 -225 66t-82 200zM133 266q0 -91 58 -137.5t167 -46.5q126 0 196.5 69.5t70.5 217.5v51q-39 4 -226 4q-70 0 -121.5 -11t-78.5 -26.5t-43 -39t-19.5 -41.5t-3.5 -40zM709 489h514q0 44 -16 88t-47 82t-83.5 62 t-118.5 24q-65 0 -115 -25t-77.5 -65.5t-41 -82t-15.5 -83.5z" />
<glyph unicode="&#xe7;" horiz-adv-x="776" d="M51 410q0 96 31.5 175.5t83.5 129.5t117 77t135 27q50 0 93.5 -12.5t74 -32.5t55.5 -44t40 -47.5t25.5 -43.5t14.5 -33l4 -12h-82q-3 6 -8 15.5t-24.5 34t-43 43.5t-64 34.5t-85.5 15.5q-120 -2 -202.5 -88.5t-82.5 -238.5q0 -160 70.5 -244.5t214.5 -83.5q45 0 85 12.5 t64.5 31t42.5 36.5t26 30l7 13h82q-3 -8 -10 -22t-33.5 -49.5t-58.5 -62.5t-87 -49t-118 -22q-171 0 -269 106.5t-98 303.5zM264 -410l12 41h52q14 0 32 3t42 11t39.5 27t15.5 45q0 16 -4.5 29t-10 21t-17 14t-19.5 9t-23 4t-23 1.5t-24 0t-21 -0.5l93 205h49l-66 -154h13 t28.5 -6.5t36 -18.5t28.5 -40.5t13 -67.5q0 -50 -41.5 -86.5t-114.5 -36.5h-90z" />
<glyph unicode="&#xe8;" horiz-adv-x="780" d="M53 410q-1 89 18 160t51 117t77.5 76.5t94.5 43t103 12.5q45 0 89.5 -12.5t89 -42t78 -73t54.5 -111t21 -150.5h-598q0 -52 8 -99.5t28.5 -94t52.5 -80t84 -54t118 -20.5q39 0 76.5 12.5t63 31t46 36.5t30.5 30l9 13h82q-3 -8 -10 -22t-33.5 -49.5t-58.5 -62.5t-87 -49 t-118 -22q-171 0 -268.5 106.5t-100.5 303.5zM133 500h514q0 101 -67.5 173t-196.5 72q-65 0 -115.5 -23.5t-78 -61.5t-41 -78t-15.5 -82zM276 1061q0 13 34 47.5t48 34.5l144 -185l-21 -20z" />
<glyph unicode="&#xe9;" horiz-adv-x="780" d="M53 410q-1 89 18 160t51 117t77.5 76.5t94.5 43t103 12.5q45 0 89.5 -12.5t89 -42t78 -73t54.5 -111t21 -150.5h-598q0 -52 8 -99.5t28.5 -94t52.5 -80t84 -54t118 -20.5q39 0 76.5 12.5t63 31t46 36.5t30.5 30l9 13h82q-3 -8 -10 -22t-33.5 -49.5t-58.5 -62.5t-87 -49 t-118 -22q-171 0 -268.5 106.5t-100.5 303.5zM133 500h514q0 101 -67.5 173t-196.5 72q-65 0 -115.5 -23.5t-78 -61.5t-41 -78t-15.5 -82zM276 956l144 185q14 0 48 -34.5t34 -47.5l-205 -123z" />
<glyph unicode="&#xea;" horiz-adv-x="780" d="M53 410q-1 89 18 160t51 117t77.5 76.5t94.5 43t103 12.5q45 0 89.5 -12.5t89 -42t78 -73t54.5 -111t21 -150.5h-598q0 -52 8 -99.5t28.5 -94t52.5 -80t84 -54t118 -20.5q39 0 76.5 12.5t63 31t46 36.5t30.5 30l9 13h82q-3 -8 -10 -22t-33.5 -49.5t-58.5 -62.5t-87 -49 t-118 -22q-171 0 -268.5 106.5t-100.5 303.5zM133 500h514q0 101 -67.5 173t-196.5 72q-65 0 -115.5 -23.5t-78 -61.5t-41 -78t-15.5 -82zM205 918l184 188l184 -184l-20 -21q-123 82 -164 123q-18 -18 -59 -49t-73 -53l-32 -21z" />
<glyph unicode="&#xeb;" horiz-adv-x="780" d="M53 410q-1 89 18 160t51 117t77.5 76.5t94.5 43t103 12.5q45 0 89.5 -12.5t89 -42t78 -73t54.5 -111t21 -150.5h-598q0 -52 8 -99.5t28.5 -94t52.5 -80t84 -54t118 -20.5q39 0 76.5 12.5t63 31t46 36.5t30.5 30l9 13h82q-3 -8 -10 -22t-33.5 -49.5t-58.5 -62.5t-87 -49 t-118 -22q-171 0 -268.5 106.5t-100.5 303.5zM133 500h514q0 101 -67.5 173t-196.5 72q-65 0 -115.5 -23.5t-78 -61.5t-41 -78t-15.5 -82zM233 1024q0 18 14.5 32.5t31.5 14.5q19 0 33 -14t14 -33q0 -17 -14 -31t-33 -14q-17 0 -31.5 14t-14.5 31zM455 1024q0 19 14 33 t31 14q19 0 33 -14t14 -33q0 -17 -14 -31t-33 -14q-17 0 -31 14t-14 31z" />
<glyph unicode="&#xec;" horiz-adv-x="229" d="M2 1061q0 13 34 47.5t48 34.5l143 -185l-20 -20zM76 4v815h82v-815h-82z" />
<glyph unicode="&#xed;" horiz-adv-x="229" d="M2 956l143 185q14 0 48 -34.5t34 -47.5l-204 -123zM76 4v815h82v-815h-82z" />
<glyph unicode="&#xee;" horiz-adv-x="229" d="M-70 918l185 188l184 -184l-20 -21q-123 82 -164 123q-18 -18 -59 -49t-73 -53l-32 -21zM76 4v815h82v-815h-82z" />
<glyph unicode="&#xef;" horiz-adv-x="229" d="M-41 1024q0 19 14 33t31 14q19 0 33 -14t14 -33q0 -17 -14 -31t-33 -14q-17 0 -31 14t-14 31zM76 4h82v815h-82v-815zM180 1024q0 19 14 33t31 14q19 0 33 -14t14 -33q0 -17 -14 -31t-33 -14q-17 0 -31 14t-14 31z" />
<glyph unicode="&#xf0;" horiz-adv-x="888" d="M61 410q0 102 50 196t139 153.5t192 59.5q64 0 119 -24t88.5 -60t53 -66.5t26.5 -54.5v443h-211v82h211v295h82v-295h109v-82h-109v-1057h-82v193q-3 -18 -25.5 -48.5t-58.5 -63.5t-91 -57t-112 -24q-103 0 -192 59.5t-139 154t-50 196.5zM150 410q0 -136 71 -224 q42 -48 99.5 -78t113.5 -30t112.5 29.5t98.5 78.5q74 92 72 227t-72 220q-44 48 -100 79t-111 31t-112.5 -31t-100.5 -79q-71 -88 -71 -223z" />
<glyph unicode="&#xf1;" horiz-adv-x="706" d="M61 0v809h82v-133q27 58 94 100.5t152 42.5q73 0 127.5 -27t83 -71t42 -91.5t13.5 -97.5v-532h-82v532q0 30 -6 59t-23 65t-57 58.5t-98 22.5q-63 0 -113.5 -23t-77.5 -57.5t-41 -69t-14 -63.5v-524h-82zM92 1010q0 1 5.5 9t17 22.5t24.5 27.5q64 64 131 64 q26 0 49.5 -10t34.5 -19t27 -25t26.5 -22t26.5 -6q31 0 63 29t46 53l69 -41q0 -1 -5.5 -9.5t-17 -23t-24.5 -27.5q-63 -63 -131 -63q-26 0 -49.5 9.5t-34 18.5t-26.5 25q-29 29 -54 29q-31 0 -62 -29t-46 -53z" />
<glyph unicode="&#xf2;" horiz-adv-x="860" d="M41 410q0 103 49.5 196.5t140 153t199.5 59.5t199.5 -59.5t140 -153t49.5 -196.5t-49.5 -196.5t-140 -153.5t-199.5 -60t-199.5 60t-140 153.5t-49.5 196.5zM131 410q0 -77 37.5 -154t108 -129.5t153.5 -52.5t153 52.5t107 129.5t37 154t-37 153t-107 128t-153 52 q-124 0 -211.5 -106t-87.5 -227zM311 1061q0 13 34 47.5t48 34.5l144 -185l-21 -20z" />
<glyph unicode="&#xf3;" horiz-adv-x="860" d="M41 410q0 103 49.5 196.5t140 153t199.5 59.5t199.5 -59.5t140 -153t49.5 -196.5t-49.5 -196.5t-140 -153.5t-199.5 -60t-199.5 60t-140 153.5t-49.5 196.5zM131 410q0 -77 37.5 -154t108 -129.5t153.5 -52.5t153 52.5t107 129.5t37 154t-37 153t-107 128t-153 52 q-124 0 -211.5 -106t-87.5 -227zM311 956l144 185q14 0 48 -34.5t34 -47.5l-205 -123z" />
<glyph unicode="&#xf4;" horiz-adv-x="860" d="M41 410q0 103 49.5 196.5t140 153t199.5 59.5t199.5 -59.5t140 -153t49.5 -196.5t-49.5 -196.5t-140 -153.5t-199.5 -60t-199.5 60t-140 153.5t-49.5 196.5zM131 410q0 -77 37.5 -154t108 -129.5t153.5 -52.5t153 52.5t107 129.5t37 154t-37 153t-107 128t-153 52 q-124 0 -211.5 -106t-87.5 -227zM240 918l184 188l184 -184l-20 -21q-123 82 -164 123q-18 -18 -59 -49t-73 -53l-32 -21z" />
<glyph unicode="&#xf5;" horiz-adv-x="860" d="M41 410q0 103 49.5 196.5t140 153t199.5 59.5t199.5 -59.5t140 -153t49.5 -196.5t-49.5 -196.5t-140 -153.5t-199.5 -60t-199.5 60t-140 153.5t-49.5 196.5zM131 410q0 -77 37.5 -154t108 -129.5t153.5 -52.5t153 52.5t107 129.5t37 154t-37 153t-107 128t-153 52 q-124 0 -211.5 -106t-87.5 -227zM164 1010q0 1 5.5 9t17 22.5t24.5 27.5q64 64 131 64q26 0 49.5 -10t34.5 -19t27 -25t26.5 -22t26.5 -6q31 0 62 29t46 53l70 -41q0 -1 -5.5 -9.5t-17 -23t-24.5 -27.5q-63 -63 -131 -63q-58 0 -111 53q-17 17 -27 23t-26 6q-31 0 -63 -29 t-46 -53z" />
<glyph unicode="&#xf6;" horiz-adv-x="860" d="M41 410q0 103 49.5 196.5t140 153t199.5 59.5t199.5 -59.5t140 -153t49.5 -196.5t-49.5 -196.5t-140 -153.5t-199.5 -60t-199.5 60t-140 153.5t-49.5 196.5zM131 410q0 -77 37.5 -154t108 -129.5t153.5 -52.5t153 52.5t107 129.5t37 154t-37 153t-107 128t-153 52 q-124 0 -211.5 -106t-87.5 -227zM268 1024q0 19 14 33t31 14q19 0 33 -14t14 -33q0 -17 -14 -31t-33 -14q-17 0 -31 14t-14 31zM489 1024q0 18 14.5 32.5t31.5 14.5q19 0 33 -14t14 -33q0 -17 -14 -31t-33 -14q-17 0 -31.5 14t-14.5 31z" />
<glyph unicode="&#xf7;" horiz-adv-x="614" d="M41 530v82h532v-82h-532zM246 367q0 26 17.5 43.5t43.5 17.5t44 -17.5t18 -43.5t-18 -44t-44 -18t-43.5 18t-17.5 44zM246 776q0 26 17.5 44t43.5 18t44 -18t18 -44t-18 -43.5t-44 -17.5t-43.5 17.5t-17.5 43.5z" />
<glyph unicode="&#xf8;" horiz-adv-x="860" d="M41 410q0 103 49.5 196.5t140 153t199.5 59.5q66 0 133 -26l31 65h94l-49 -106q83 -57 131.5 -149.5t48.5 -192.5q0 -103 -49.5 -196.5t-140 -153.5t-199.5 -60q-64 0 -131 23l-25 -54h-96l45 94q-84 58 -133 151.5t-49 195.5zM131 410q0 -72 34.5 -146t92.5 -125 l272 582q-49 22 -100 22q-124 0 -211.5 -106t-87.5 -227zM332 94q52 -20 98 -20q83 0 153 52.5t107 129.5t37 154q0 71 -33.5 143t-91.5 123z" />
<glyph unicode="&#xf9;" horiz-adv-x="706" d="M51 287v532h82v-532q0 -30 6 -59t23 -65t57 -58.5t98 -22.5q51 0 93.5 15.5t70 39t47 52.5t27.5 55.5t8 48.5v526h82v-821h-82v145q-27 -58 -94 -100.5t-152 -42.5q-73 0 -127.5 27t-83 71t-42 91.5t-13.5 97.5zM240 1061q0 13 34 47.5t48 34.5l143 -185l-21 -20z" />
<glyph unicode="&#xfa;" horiz-adv-x="706" d="M51 287v532h82v-532q0 -30 6 -59t23 -65t57 -58.5t98 -22.5q51 0 93.5 15.5t70 39t47 52.5t27.5 55.5t8 48.5v526h82v-821h-82v145q-27 -58 -94 -100.5t-152 -42.5q-73 0 -127.5 27t-83 71t-42 91.5t-13.5 97.5zM240 956l143 185q14 0 48 -34.5t34 -47.5l-205 -123z" />
<glyph unicode="&#xfb;" horiz-adv-x="706" d="M51 287v532h82v-532q0 -30 6 -59t23 -65t57 -58.5t98 -22.5q51 0 93.5 15.5t70 39t47 52.5t27.5 55.5t8 48.5v526h82v-821h-82v145q-27 -58 -94 -100.5t-152 -42.5q-73 0 -127.5 27t-83 71t-42 91.5t-13.5 97.5zM168 918l184 188l185 -184l-21 -21q-123 82 -164 123 q-18 -18 -59 -49t-73 -53l-32 -21z" />
<glyph unicode="&#xfc;" horiz-adv-x="706" d="M51 287v532h82v-532q0 -30 6 -59t23 -65t57 -58.5t98 -22.5q51 0 93.5 15.5t70 39t47 52.5t27.5 55.5t8 48.5v526h82v-821h-82v145q-27 -58 -94 -100.5t-152 -42.5q-73 0 -127.5 27t-83 71t-42 91.5t-13.5 97.5zM197 1024q0 19 14 33t31 14q19 0 33 -14t14 -33 q0 -17 -14 -31t-33 -14q-17 0 -31 14t-14 31zM418 1024q0 19 14 33t31 14q19 0 33 -14t14 -33q0 -17 -14 -31t-33 -14q-17 0 -31 14t-14 31z" />
<glyph unicode="&#xfd;" horiz-adv-x="808" d="M-20 -614q29 52 166.5 338t185.5 393l-271 702h82l236 -622l297 622h82q-659 -1378 -697 -1433h-81zM291 956l143 185q14 0 48 -34.5t34 -47.5l-205 -123z" />
<glyph unicode="&#xff;" horiz-adv-x="808" d="M-20 -614q29 52 166.5 338t185.5 393l-271 702h82l236 -622l297 622h82q-659 -1378 -697 -1433h-81zM248 1024q0 19 14 33t31 14q19 0 33 -14t14 -33q0 -17 -14 -31t-33 -14q-17 0 -31 14t-14 31zM469 1024q0 19 14 33t31 14q19 0 33 -14t14 -33q0 -17 -14 -31t-33 -14 q-17 0 -31 14t-14 31z" />
<glyph unicode="&#x152;" horiz-adv-x="1593" d="M55 612q0 152 46.5 274.5t126.5 200.5t182.5 119t218.5 41q77 0 143 -14v14h731v-67h-647v-500h608v-68h-608v-567h686v-68h-770v15q-70 -15 -143 -15q-116 0 -218.5 41t-182.5 119t-126.5 200.5t-46.5 274.5zM137 612q0 -112 27.5 -205t74 -156.5t110 -107.5t134 -64 t146.5 -20q65 0 143 17v1073q-73 16 -143 16q-76 0 -146.5 -20t-134 -64t-110 -107.5t-74 -156.5t-27.5 -205z" />
<glyph unicode="&#x153;" horiz-adv-x="1435" d="M41 410q0 104 44.5 196.5t130.5 152.5t194 60q106 0 188.5 -56.5t128.5 -150.5q40 107 124.5 157t188.5 50q45 0 89.5 -12.5t89 -42t78 -73t54.5 -111t21 -150.5h-598q0 -52 8 -99.5t28.5 -94t52.5 -80t84 -54t118 -20.5q39 0 76.5 12.5t63 31t46 36.5t29.5 30l10 13h82 q-3 -8 -10 -22t-33.5 -49.5t-58.5 -62.5t-87 -49t-118 -22q-122 0 -208 55t-126 160q-45 -97 -128 -156t-193 -59q-108 0 -194 60t-130.5 153t-44.5 197zM123 410q0 -81 33 -159t101 -133t153 -55t151.5 55t98.5 133t32 159q0 60 -19 120t-54 110.5t-89.5 82t-119.5 31.5 t-120.5 -31.5t-91 -82t-55.5 -111t-20 -119.5zM776 500h514q0 101 -67.5 173t-196.5 72q-65 0 -115.5 -23.5t-78 -61.5t-41 -78t-15.5 -82z" />
<glyph unicode="&#x178;" horiz-adv-x="946" d="M31 1270h78l364 -598l365 598h77l-403 -684v-586h-78v586zM315 1477q0 19 14 33t31 14q19 0 33.5 -14t14.5 -33q0 -17 -14.5 -31t-33.5 -14q-17 0 -31 14t-14 31zM537 1477q0 19 14 33t31 14q19 0 33 -14t14 -33q0 -17 -14 -31t-33 -14q-17 0 -31 14t-14 31z" />
<glyph unicode="&#x2c6;" horiz-adv-x="450" d="M41 918l184 188l185 -184l-21 -21q-123 82 -164 123q-18 -18 -59 -49t-73 -53l-32 -21z" />
<glyph unicode="&#x2dc;" horiz-adv-x="602" d="M41 1010q0 1 5.5 9t17 22.5t24.5 27.5q64 64 131 64q26 0 49.5 -10t34.5 -19t27 -25t26.5 -22t26.5 -6q31 0 63 29t46 53l69 -41q0 -1 -5.5 -9.5t-17 -23t-24.5 -27.5q-63 -63 -131 -63q-58 0 -111 53q-17 17 -27 23t-26 6q-31 0 -62 -29t-46 -53z" />
<glyph unicode="&#x2000;" horiz-adv-x="829" />
<glyph unicode="&#x2001;" horiz-adv-x="1659" />
<glyph unicode="&#x2002;" horiz-adv-x="829" />
<glyph unicode="&#x2003;" horiz-adv-x="1659" />
<glyph unicode="&#x2004;" horiz-adv-x="553" />
<glyph unicode="&#x2005;" horiz-adv-x="414" />
<glyph unicode="&#x2006;" horiz-adv-x="276" />
<glyph unicode="&#x2007;" horiz-adv-x="276" />
<glyph unicode="&#x2008;" horiz-adv-x="207" />
<glyph unicode="&#x2009;" horiz-adv-x="331" />
<glyph unicode="&#x200a;" horiz-adv-x="92" />
<glyph unicode="&#x2010;" horiz-adv-x="798" d="M0 532v82h799v-82h-799z" />
<glyph unicode="&#x2011;" horiz-adv-x="798" d="M0 532v82h799v-82h-799z" />
<glyph unicode="&#x2012;" horiz-adv-x="798" d="M0 532v82h799v-82h-799z" />
<glyph unicode="&#x2013;" horiz-adv-x="595" d="M0 532v82h596v-82h-596z" />
<glyph unicode="&#x2014;" horiz-adv-x="1007" d="M0 532v82h1008v-82h-1008z" />
<glyph unicode="&#x2018;" horiz-adv-x="184" d="M41 1262q0 25 14 39t37 14t37 -14t14 -39q0 -33 -24 -41q0 -31 24 -62l-14 -24q-31 15 -59.5 50t-28.5 77z" />
<glyph unicode="&#x2019;" horiz-adv-x="184" d="M41 1149q25 32 25 61q-25 8 -25 41q0 25 14.5 39.5t36.5 14.5t36.5 -14.5t14.5 -39.5q0 -42 -28.5 -77t-59.5 -50z" />
<glyph unicode="&#x201a;" horiz-adv-x="184" d="M41 -49q25 32 25 61q-25 8 -25 41q0 25 14 39t37 14t37 -14t14 -39q0 -42 -28.5 -77t-59.5 -50z" />
<glyph unicode="&#x201c;" horiz-adv-x="331" d="M41 1272q0 25 14 39t37 14t37 -14t14 -39q0 -33 -24 -41q0 -31 24 -62l-14 -24q-31 15 -59.5 50t-28.5 77zM188 1272q0 25 14.5 39t37.5 14t37 -14t14 -39q0 -33 -25 -41q0 -30 25 -62l-15 -24q-31 15 -59.5 50t-28.5 77z" />
<glyph unicode="&#x201d;" horiz-adv-x="331" d="M41 1167q25 32 25 62q-25 8 -25 41q0 25 14 39t37 14t37 -14t14 -39q0 -42 -28.5 -77t-59.5 -50zM188 1167q25 32 25 62q-25 8 -25 41q0 25 14.5 39t37.5 14t37 -14t14 -39q0 -42 -28.5 -77t-59.5 -50z" />
<glyph unicode="&#x201e;" horiz-adv-x="333" d="M41 -49q25 32 25 61q-25 8 -25 41q0 25 14 39t37 14t37 -14t14 -39q0 -42 -28.5 -77t-59.5 -50zM190 -49q25 32 25 61q-25 8 -25 41q0 25 14.5 39t37.5 14t37 -14t14 -39q0 -42 -28.5 -77t-59.5 -50z" />
<glyph unicode="&#x2022;" horiz-adv-x="409" d="M41 715q0 67 48.5 115.5t115.5 48.5t115.5 -48.5t48.5 -115.5t-48.5 -115.5t-115.5 -48.5t-115.5 48.5t-48.5 115.5z" />
<glyph unicode="&#x2026;" horiz-adv-x="608" d="M41 45q0 19 14 33t31 14q19 0 33 -14t14 -33q0 -17 -14 -31t-33 -14q-17 0 -31 14t-14 31zM258 45q0 19 14 33t31 14q19 0 33 -14t14 -33q0 -17 -14 -31t-33 -14q-17 0 -31 14t-14 31zM475 45q0 19 14 33t31 14q19 0 33 -14t14 -33q0 -17 -14 -31t-33 -14q-17 0 -31 14 t-14 31z" />
<glyph unicode="&#x202f;" horiz-adv-x="331" />
<glyph unicode="&#x2039;" horiz-adv-x="430" d="M41 410l307 307l41 -41q-5 -11 -14 -29t-35.5 -63.5t-52.5 -81t-60 -64t-63 -28.5q29 0 62.5 -27.5t61 -67t51 -78.5t37.5 -67l13 -27l-41 -41z" />
<glyph unicode="&#x203a;" horiz-adv-x="430" d="M41 143q5 11 14 29t35.5 64t52.5 81t60 64t63 29q-29 0 -62.5 27.5t-61 66.5t-51 78t-37.5 66l-13 28l41 41l307 -307l-307 -308z" />
<glyph unicode="&#x205f;" horiz-adv-x="414" />
<glyph unicode="&#x20ac;" horiz-adv-x="1034" d="M41 578v57h123q0 24 4 78h-127v57h133q14 109 48.5 196.5t79.5 143t100 92.5t107.5 52.5t104.5 15.5q91 0 175.5 -34t137 -92t52.5 -124h-78q0 51 -83.5 111.5t-203.5 60.5q-63 0 -122.5 -25.5t-110.5 -75.5t-87 -133t-48 -188h246v-57h-246v-78h246v-57h-246 q4 -130 36.5 -229t85 -156.5t115 -86t131.5 -28.5q68 0 125.5 21.5t91 52.5t52 62t18.5 54h82q0 -38 -23.5 -83.5t-65.5 -87t-110.5 -69.5t-148.5 -28q-71 0 -132.5 15t-124 54.5t-107 102.5t-74.5 167t-33 239h-123z" />
<glyph unicode="&#x2122;" horiz-adv-x="520" d="M41 1253v17h190v-17h-88v-229h-14v229h-88zM254 1024v246h14l101 -223l94 223h16v-246h-16v211l-86 -211h-15l-94 211v-211h-14z" />
<glyph unicode="&#xe000;" horiz-adv-x="819" d="M0 0v819h819v-819h-819z" />
</font>
</defs>
</svg>
